<svg width="200" height="56" viewBox="0 0 200 56" fill="none" xmlns="http://www.w3.org/2000/svg">
<path d="M27.2359 35.1805C27.6514 34.7353 27.9778 34.1937 28.2153 33.5556C28.4527 32.9323 28.5714 32.2052 28.5714 31.3742V17.7963H23.9638V18.6644H27.6588V31.3074C27.6588 31.99 27.5623 32.5984 27.3694 33.1327C27.1913 33.652 26.9391 34.0898 26.6126 34.4459C26.2862 34.8318 25.8929 35.1211 25.4329 35.314C24.9877 35.5218 24.498 35.6405 23.9638 35.6702V36.5605C24.6019 36.5457 25.2029 36.4195 25.7668 36.1821C26.3307 35.9447 26.8204 35.6108 27.2359 35.1805Z" fill="#151C1A"/>
<path d="M40.5543 33.3775V32.5094H38.9072V25.0304H38.1726C38.1429 25.3569 38.1207 25.6908 38.1058 26.0321C38.091 26.3585 38.0836 26.6776 38.0836 26.9892C37.8313 26.4105 37.3936 25.9134 36.7703 25.4979C36.1471 25.0675 35.3977 24.8524 34.5222 24.8524C33.8989 24.8524 33.3202 24.9711 32.786 25.2085C32.2666 25.4311 31.8066 25.7353 31.4059 26.1211C31.0053 26.5218 30.6936 26.9892 30.4711 27.5234C30.2485 28.0576 30.1372 28.6141 30.1372 29.1928C30.1372 29.8013 30.2485 30.3651 30.4711 30.8845C30.6936 31.4039 31.0053 31.8639 31.4059 32.2646C31.8066 32.6652 32.2666 32.9768 32.786 33.1994C33.3202 33.422 33.8989 33.5333 34.5222 33.5333C34.9673 33.5333 35.3828 33.474 35.7687 33.3552C36.1693 33.2365 36.5255 33.0733 36.8371 32.8656C37.1339 32.6726 37.3861 32.4575 37.5939 32.22C37.8165 31.9678 37.9797 31.7081 38.0836 31.441C38.0836 31.6339 38.0836 31.812 38.0836 31.9752C38.0836 32.1236 38.0836 32.2868 38.0836 32.4649V33.3775H40.5543ZM34.5222 25.7427C34.997 25.7427 35.4422 25.8318 35.8577 26.0098C36.2732 26.1731 36.6442 26.4105 36.9706 26.7221C37.2823 27.0337 37.5271 27.4047 37.7052 27.8351C37.8981 28.2506 37.9945 28.7031 37.9945 29.1928C37.9945 29.6825 37.8981 30.1426 37.7052 30.5729C37.5271 30.9884 37.2748 31.352 36.9484 31.6636C36.6367 31.9752 36.2732 32.22 35.8577 32.3981C35.4422 32.5614 34.997 32.643 34.5222 32.643C34.0473 32.643 33.6096 32.5614 33.2089 32.3981C32.8082 32.2349 32.4521 32.0049 32.1405 31.7081C31.7992 31.3965 31.5321 31.0255 31.3391 30.5951C31.1462 30.1648 31.0498 29.6974 31.0498 29.1928C31.0498 28.718 31.1314 28.2728 31.2946 27.8573C31.4727 27.4418 31.7175 27.0783 32.0292 26.7666C32.326 26.4402 32.6895 26.1879 33.1199 26.0098C33.5502 25.8318 34.0176 25.7427 34.5222 25.7427Z" fill="#151C1A"/>
<path d="M42.1143 33.3775H46.4103V32.5094H44.6741V30.2835L46.0987 28.9257C46.5142 29.5341 46.9445 30.1351 47.3897 30.7287C47.8349 31.3074 48.28 31.901 48.7252 32.5094H47.6345V33.3775H51.7524V32.5094H49.8159C49.2965 31.812 48.7846 31.1219 48.28 30.4393C47.7755 29.7419 47.271 29.037 46.7664 28.3247C47.2413 27.8796 47.6642 27.4789 48.0352 27.1228C48.421 26.7518 48.8365 26.3437 49.2817 25.8985H50.9066V25.0304H46.7887V25.8985H48.1465L44.6741 29.1483V16.6834H42.1811V17.5515H43.7615V32.5094H42.1143V33.3775Z" fill="#151C1A"/>
<path d="M63.7261 33.3775V32.5094H62.079V25.0304H61.3444C61.3147 25.3569 61.2925 25.6908 61.2776 26.0321C61.2628 26.3585 61.2554 26.6776 61.2554 26.9892C61.0031 26.4105 60.5654 25.9134 59.9421 25.4979C59.3189 25.0675 58.5695 24.8524 57.694 24.8524C57.0707 24.8524 56.492 24.9711 55.9578 25.2085C55.4384 25.4311 54.9784 25.7353 54.5777 26.1211C54.1771 26.5218 53.8654 26.9892 53.6429 27.5234C53.4203 28.0576 53.309 28.6141 53.309 29.1928C53.309 29.8013 53.4203 30.3651 53.6429 30.8845C53.8654 31.4039 54.1771 31.8639 54.5777 32.2646C54.9784 32.6652 55.4384 32.9768 55.9578 33.1994C56.492 33.422 57.0707 33.5333 57.694 33.5333C58.1391 33.5333 58.5546 33.474 58.9405 33.3552C59.3411 33.2365 59.6973 33.0733 60.0089 32.8656C60.3057 32.6726 60.5579 32.4575 60.7657 32.22C60.9883 31.9678 61.1515 31.7081 61.2554 31.441C61.2554 31.6339 61.2554 31.812 61.2554 31.9752C61.2554 32.1236 61.2554 32.2868 61.2554 32.4649V33.3775H63.7261ZM57.694 25.7427C58.1688 25.7427 58.614 25.8318 59.0295 26.0098C59.445 26.1731 59.816 26.4105 60.1424 26.7221C60.4541 27.0337 60.6989 27.4047 60.877 27.8351C61.0699 28.2506 61.1664 28.7031 61.1664 29.1928C61.1664 29.6825 61.0699 30.1426 60.877 30.5729C60.6989 30.9884 60.4466 31.352 60.1202 31.6636C59.8086 31.9752 59.445 32.22 59.0295 32.3981C58.614 32.5614 58.1688 32.643 57.694 32.643C57.2191 32.643 56.7814 32.5614 56.3807 32.3981C55.98 32.2349 55.6239 32.0049 55.3123 31.7081C54.971 31.3965 54.7039 31.0255 54.511 30.5951C54.318 30.1648 54.2216 29.6974 54.2216 29.1928C54.2216 28.718 54.3032 28.2728 54.4664 27.8573C54.6445 27.4418 54.8894 27.0783 55.201 26.7666C55.4978 26.4402 55.8613 26.1879 56.2917 26.0098C56.722 25.8318 57.1894 25.7427 57.694 25.7427Z" fill="#151C1A"/>
<path d="M69.5821 33.3775V32.5094H67.935V28.8144C67.935 28.3544 68.0314 27.9315 68.2243 27.5457C68.4172 27.145 68.6843 26.8186 69.0256 26.5663C69.3224 26.314 69.6637 26.1211 70.0495 25.9876C70.4502 25.8392 70.8731 25.765 71.3183 25.765L71.3628 24.8524C71.0215 24.8672 70.6802 24.9266 70.3389 25.0304C70.0124 25.1343 69.6934 25.2827 69.3818 25.4756C69.0553 25.6685 68.7585 25.9134 68.4914 26.2102C68.2392 26.4921 68.0314 26.8186 67.8682 27.1895C67.8533 26.9373 67.8459 26.774 67.8459 26.6999C67.8459 26.6257 67.8385 26.4624 67.8237 26.2102L67.7569 25.0304H65.4197V25.8985H67.0223V32.5094H65.2861V33.3775H69.5821Z" fill="#151C1A"/>
<path d="M77.5902 33.3775V32.5094H75.765V25.9208H78.347V25.0304H75.765V19.5993H74.8524V25.0304H72.9159V25.9208H74.8524V33.3775H77.5902Z" fill="#151C1A"/>
<path d="M90.3324 33.3775V32.5094H88.6852V25.0304H87.9507C87.921 25.3569 87.8988 25.6908 87.8839 26.0321C87.8691 26.3585 87.8617 26.6776 87.8617 26.9892C87.6094 26.4105 87.1716 25.9134 86.5484 25.4979C85.9251 25.0675 85.1758 24.8524 84.3002 24.8524C83.677 24.8524 83.0983 24.9711 82.5641 25.2085C82.0447 25.4311 81.5847 25.7353 81.184 26.1211C80.7834 26.5218 80.4717 26.9892 80.2491 27.5234C80.0266 28.0576 79.9153 28.6141 79.9153 29.1928C79.9153 29.8013 80.0266 30.3651 80.2491 30.8845C80.4717 31.4039 80.7834 31.8639 81.184 32.2646C81.5847 32.6652 82.0447 32.9768 82.5641 33.1994C83.0983 33.422 83.677 33.5333 84.3002 33.5333C84.7454 33.5333 85.1609 33.474 85.5467 33.3552C85.9474 33.2365 86.3035 33.0733 86.6152 32.8656C86.9119 32.6726 87.1642 32.4575 87.372 32.22C87.5946 31.9678 87.7578 31.7081 87.8617 31.441C87.8617 31.6339 87.8617 31.812 87.8617 31.9752C87.8617 32.1236 87.8617 32.2868 87.8617 32.4649V33.3775H90.3324ZM84.3002 25.7427C84.7751 25.7427 85.2203 25.8318 85.6358 26.0098C86.0513 26.1731 86.4223 26.4105 86.7487 26.7221C87.0603 27.0337 87.3052 27.4047 87.4833 27.8351C87.6762 28.2506 87.7726 28.7031 87.7726 29.1928C87.7726 29.6825 87.6762 30.1426 87.4833 30.5729C87.3052 30.9884 87.0529 31.352 86.7265 31.6636C86.4148 31.9752 86.0513 32.22 85.6358 32.3981C85.2203 32.5614 84.7751 32.643 84.3002 32.643C83.8254 32.643 83.3876 32.5614 82.987 32.3981C82.5863 32.2349 82.2302 32.0049 81.9185 31.7081C81.5772 31.3965 81.3101 31.0255 81.1172 30.5951C80.9243 30.1648 80.8279 29.6974 80.8279 29.1928C80.8279 28.718 80.9095 28.2728 81.0727 27.8573C81.2508 27.4418 81.4956 27.0783 81.8073 26.7666C82.104 26.4402 82.4676 26.1879 82.8979 26.0098C83.3283 25.8318 83.7957 25.7427 84.3002 25.7427Z" fill="#151C1A"/>
<path d="M110.563 32.4426L110.051 31.7081C109.517 32.0197 108.946 32.2646 108.337 32.4426C107.744 32.6059 107.121 32.6875 106.468 32.6875C105.503 32.6875 104.598 32.502 103.752 32.131C102.906 31.7452 102.172 31.2332 101.548 30.5951C100.91 29.9719 100.406 29.2299 100.035 28.3693C99.6638 27.5086 99.4783 26.596 99.4783 25.6314C99.4783 24.652 99.6638 23.732 100.035 22.8713C100.406 21.9958 100.91 21.239 101.548 20.6009C102.187 19.948 102.928 19.436 103.774 19.0651C104.62 18.6792 105.533 18.4863 106.512 18.4863C107.076 18.4863 107.625 18.5605 108.159 18.7089C108.708 18.8425 109.228 19.0354 109.717 19.2877V21.2242H110.586V18.7312C109.977 18.375 109.332 18.1005 108.649 17.9076C107.981 17.7147 107.269 17.6182 106.512 17.6182C105.414 17.6182 104.383 17.8334 103.418 18.2638C102.454 18.6792 101.615 19.2431 100.903 19.9554C100.176 20.6825 99.6045 21.5358 99.189 22.5152C98.7735 23.4797 98.5657 24.5111 98.5657 25.6092C98.5657 26.7073 98.7735 27.7386 99.189 28.7031C99.6045 29.6677 100.176 30.5061 100.903 31.2184C101.615 31.9455 102.454 32.5168 103.418 32.9323C104.383 33.3478 105.414 33.5556 106.512 33.5556C107.269 33.5556 107.981 33.4591 108.649 33.2662C109.332 33.0585 109.97 32.7839 110.563 32.4426Z" fill="#151C1A"/>
<path d="M119.675 32.2646C120.061 31.8639 120.365 31.4039 120.588 30.8845C120.825 30.3651 120.944 29.8013 120.944 29.1928C120.944 28.5993 120.825 28.0354 120.588 27.5012C120.365 26.967 120.061 26.4995 119.675 26.0989C119.274 25.713 118.799 25.4088 118.25 25.1863C117.716 24.9488 117.145 24.8301 116.536 24.8301C115.928 24.8301 115.357 24.9488 114.823 25.1863C114.288 25.4088 113.828 25.713 113.442 26.0989C113.042 26.4995 112.73 26.967 112.508 27.5012C112.285 28.0354 112.174 28.5993 112.174 29.1928C112.174 29.8013 112.285 30.3726 112.508 30.9068C112.73 31.4261 113.042 31.8787 113.442 32.2646C113.828 32.6652 114.281 32.9768 114.8 33.1994C115.334 33.422 115.913 33.5333 116.536 33.5333C117.145 33.5333 117.716 33.422 118.25 33.1994C118.799 32.9768 119.274 32.6652 119.675 32.2646ZM114.088 31.6191C113.776 31.3223 113.532 30.9661 113.353 30.5506C113.175 30.1351 113.086 29.6825 113.086 29.1928C113.086 28.718 113.175 28.2728 113.353 27.8573C113.532 27.4418 113.776 27.0708 114.088 26.7444C114.4 26.4327 114.763 26.1879 115.179 26.0098C115.594 25.8318 116.039 25.7427 116.514 25.7427C116.989 25.7427 117.434 25.8318 117.85 26.0098C118.28 26.1879 118.651 26.4327 118.963 26.7444C119.289 27.0708 119.541 27.4492 119.719 27.8796C119.898 28.2951 119.987 28.7328 119.987 29.1928C119.987 29.6825 119.898 30.1351 119.719 30.5506C119.541 30.9661 119.289 31.3223 118.963 31.6191C118.651 31.9455 118.28 32.1978 117.85 32.3759C117.434 32.5539 116.989 32.643 116.514 32.643C116.039 32.643 115.594 32.5539 115.179 32.3759C114.763 32.1978 114.4 31.9455 114.088 31.6191Z" fill="#151C1A"/>
<path d="M126.794 33.3775V32.5094H125.147V28.8144C125.147 28.3693 125.236 27.9612 125.414 27.5902C125.607 27.2192 125.867 26.8928 126.193 26.6108C126.49 26.3437 126.846 26.136 127.262 25.9876C127.677 25.8392 128.115 25.765 128.575 25.765C129.198 25.7947 129.666 25.9876 129.977 26.3437C130.304 26.685 130.482 27.1005 130.512 27.5902V32.5094H128.775V33.3775H133.071V32.5094H131.424V27.3454C131.394 26.6034 131.142 26.0024 130.667 25.5424C130.192 25.0824 129.547 24.8524 128.731 24.8524C127.9 24.8524 127.158 25.0675 126.505 25.4979C125.852 25.9282 125.377 26.4921 125.08 27.1895C125.066 26.9373 125.051 26.7147 125.036 26.5218C125.021 26.314 125.006 26.084 124.991 25.8318L124.969 25.0304H122.632V25.8985H124.235V32.5094H122.498V33.3775H126.794Z" fill="#151C1A"/>
<path d="M144.533 25.8985H146.158V25.0304H142.262V25.8985H143.576C143.027 26.9818 142.478 28.0576 141.929 29.1261C141.38 30.1945 140.882 31.2258 140.437 32.22C139.948 31.1665 139.436 30.1129 138.901 29.0593C138.367 28.0057 137.826 26.9521 137.276 25.8985H138.746V25.0304H134.628V25.8985H136.342C137.024 27.2489 137.707 28.5844 138.389 29.9051C139.072 31.2258 139.755 32.5539 140.437 33.8895C141.12 32.5539 141.802 31.2258 142.485 29.9051C143.168 28.5844 143.85 27.2489 144.533 25.8985Z" fill="#151C1A"/>
<path d="M152.076 25.7427C152.655 25.7427 153.174 25.906 153.634 26.2324C154.109 26.544 154.48 26.9521 154.747 27.4567C153.738 27.8573 152.729 28.258 151.72 28.6586C150.726 29.0445 149.724 29.4377 148.715 29.8384C148.611 29.3338 148.619 28.8441 148.737 28.3693C148.856 27.8796 149.064 27.4418 149.361 27.056C149.672 26.6553 150.058 26.3363 150.518 26.0989C150.993 25.8614 151.512 25.7427 152.076 25.7427ZM154.992 32.3759L154.436 31.7081C154.124 32.0049 153.768 32.2349 153.367 32.3981C152.967 32.5614 152.536 32.643 152.076 32.643C151.379 32.643 150.755 32.4649 150.206 32.1088C149.657 31.7526 149.249 31.2852 148.982 30.7064C150.14 30.2316 151.29 29.7716 152.432 29.3264C153.59 28.8812 154.747 28.4286 155.905 27.9686C155.756 27.5234 155.563 27.1154 155.326 26.7444C155.089 26.3586 154.814 26.0321 154.502 25.765C154.176 25.4682 153.805 25.2456 153.389 25.0972C152.974 24.934 152.536 24.8524 152.076 24.8524C151.468 24.8524 150.896 24.9711 150.362 25.2085C149.843 25.4311 149.383 25.7353 148.982 26.1211C148.582 26.5069 148.27 26.967 148.047 27.5012C147.825 28.0354 147.713 28.5993 147.713 29.1928C147.713 29.8013 147.825 30.3651 148.047 30.8845C148.27 31.4039 148.582 31.8639 148.982 32.2646C149.383 32.6652 149.843 32.9768 150.362 33.1994C150.896 33.422 151.468 33.5333 152.076 33.5333C152.655 33.5333 153.189 33.4294 153.679 33.2217C154.169 33.0139 154.606 32.732 154.992 32.3759Z" fill="#151C1A"/>
<path d="M164.661 32.5762L164.083 31.8862C163.786 32.1236 163.452 32.3091 163.081 32.4426C162.71 32.5762 162.317 32.643 161.901 32.643C161.427 32.643 160.974 32.5539 160.544 32.3759C160.128 32.1978 159.772 31.9604 159.475 31.6636C159.149 31.352 158.896 30.9884 158.718 30.5729C158.54 30.1426 158.451 29.6825 158.451 29.1928C158.451 28.7031 158.54 28.2506 158.718 27.8351C158.896 27.4047 159.156 27.0263 159.497 26.6999C159.794 26.4031 160.15 26.1731 160.566 26.0098C160.981 25.8318 161.427 25.7427 161.901 25.7427C162.272 25.7427 162.621 25.7947 162.948 25.8985C163.274 26.0024 163.571 26.1508 163.838 26.3437V27.9909H164.684V25.8095C164.313 25.5127 163.89 25.2827 163.415 25.1195C162.94 24.9414 162.436 24.8524 161.901 24.8524C161.293 24.8524 160.722 24.9711 160.187 25.2085C159.668 25.4311 159.208 25.7353 158.807 26.1211C158.407 26.5069 158.095 26.967 157.873 27.5012C157.65 28.0354 157.539 28.5993 157.539 29.1928C157.539 29.8013 157.65 30.3726 157.873 30.9068C158.095 31.4261 158.414 31.8787 158.83 32.2646C159.215 32.6652 159.668 32.9768 160.187 33.1994C160.722 33.422 161.293 33.5333 161.901 33.5333C162.436 33.5333 162.933 33.4517 163.393 33.2885C163.853 33.1104 164.276 32.873 164.661 32.5762Z" fill="#151C1A"/>
<path d="M170.908 33.3775V32.5094H169.083V25.9208H171.665V25.0304H169.083V19.5993H168.17V25.0304H166.234V25.9208H168.17V33.3775H170.908Z" fill="#151C1A"/>
<path d="M177.529 33.3775V32.5094H175.859V25.0304H173.233V25.8985H174.947V32.5094H173.233V33.3775H177.529ZM176.149 22.07C176.149 21.8623 176.075 21.6916 175.926 21.5581C175.778 21.4097 175.607 21.3355 175.414 21.3355C175.236 21.3355 175.073 21.4097 174.925 21.5581C174.776 21.6916 174.702 21.8623 174.702 22.07C174.702 22.2778 174.776 22.4558 174.925 22.6042C175.073 22.7378 175.236 22.8046 175.414 22.8046C175.607 22.8046 175.778 22.7378 175.926 22.6042C176.075 22.4558 176.149 22.2778 176.149 22.07Z" fill="#151C1A"/>
<path d="M186.604 32.2646C186.989 31.8639 187.294 31.4039 187.516 30.8845C187.754 30.3651 187.872 29.8013 187.872 29.1928C187.872 28.5993 187.754 28.0354 187.516 27.5012C187.294 26.967 186.989 26.4995 186.604 26.0989C186.203 25.713 185.728 25.4088 185.179 25.1863C184.645 24.9488 184.074 24.8301 183.465 24.8301C182.857 24.8301 182.285 24.9488 181.751 25.1863C181.217 25.4088 180.757 25.713 180.371 26.0989C179.971 26.4995 179.659 26.967 179.436 27.5012C179.214 28.0354 179.102 28.5993 179.102 29.1928C179.102 29.8013 179.214 30.3726 179.436 30.9068C179.659 31.4261 179.971 31.8787 180.371 32.2646C180.757 32.6652 181.21 32.9768 181.729 33.1994C182.263 33.422 182.842 33.5333 183.465 33.5333C184.074 33.5333 184.645 33.422 185.179 33.1994C185.728 32.9768 186.203 32.6652 186.604 32.2646ZM181.017 31.6191C180.705 31.3223 180.46 30.9661 180.282 30.5506C180.104 30.1351 180.015 29.6825 180.015 29.1928C180.015 28.718 180.104 28.2728 180.282 27.8573C180.46 27.4418 180.705 27.0708 181.017 26.7444C181.328 26.4327 181.692 26.1879 182.107 26.0098C182.523 25.8318 182.968 25.7427 183.443 25.7427C183.918 25.7427 184.363 25.8318 184.778 26.0098C185.209 26.1879 185.58 26.4327 185.891 26.7444C186.218 27.0708 186.47 27.4492 186.648 27.8796C186.826 28.2951 186.915 28.7328 186.915 29.1928C186.915 29.6825 186.826 30.1351 186.648 30.5506C186.47 30.9661 186.218 31.3223 185.891 31.6191C185.58 31.9455 185.209 32.1978 184.778 32.3759C184.363 32.5539 183.918 32.643 183.443 32.643C182.968 32.643 182.523 32.5539 182.107 32.3759C181.692 32.1978 181.328 31.9455 181.017 31.6191Z" fill="#151C1A"/>
<path d="M193.723 33.3775V32.5094H192.076V28.8144C192.076 28.3693 192.165 27.9612 192.343 27.5902C192.536 27.2192 192.796 26.8928 193.122 26.6108C193.419 26.3437 193.775 26.136 194.19 25.9876C194.606 25.8392 195.044 25.765 195.504 25.765C196.127 25.7947 196.594 25.9876 196.906 26.3437C197.232 26.685 197.411 27.1005 197.44 27.5902V32.5094H195.704V33.3775H200V32.5094H198.353V27.3454C198.323 26.6034 198.071 26.0024 197.596 25.5424C197.121 25.0824 196.476 24.8524 195.66 24.8524C194.829 24.8524 194.087 25.0675 193.434 25.4979C192.781 25.9282 192.306 26.4921 192.009 27.1895C191.994 26.9373 191.979 26.7147 191.965 26.5218C191.95 26.314 191.935 26.084 191.92 25.8318L191.898 25.0304H189.561V25.8985H191.163V32.5094H189.427V33.3775H193.723Z" fill="#151C1A"/>
<path d="M50.9757 43.4312C47.717 48.3205 42.994 52.0526 37.4837 54.0926C31.9735 56.1326 25.9589 56.3758 20.3019 54.7874C14.6449 53.199 9.63598 49.8605 5.99304 45.2503C2.3501 40.6401 0.260153 34.9951 0.0227323 29.1241C-0.214688 23.2531 1.41261 17.4577 4.6714 12.5685C7.93018 7.6792 12.6532 3.94711 18.1634 1.90708C23.6737 -0.132945 29.6883 -0.376176 35.3453 1.21225C41.0022 2.80068 46.0112 6.13921 49.6541 10.7494L47.471 12.4744C44.1924 8.32527 39.6844 5.32059 34.5931 3.89101C29.5018 2.46143 24.0886 2.68033 19.1294 4.51636C14.1702 6.35238 9.91952 9.71126 6.98661 14.1116C4.05371 18.5119 2.58914 23.7278 2.80282 29.0117C3.01649 34.2955 4.89745 39.3761 8.1761 43.5252C11.4547 47.6744 15.9628 50.6791 21.054 52.1087C26.1453 53.5382 31.5585 53.3193 36.5177 51.4833C41.4769 49.6473 45.7276 46.2884 48.6605 41.8881L50.9757 43.4312Z" fill="#151C1A"/>
</svg>
