<svg width="93" height="96" viewBox="0 0 93 96" fill="none" xmlns="http://www.w3.org/2000/svg">
<g clip-path="url(#clip0_14_183)">
<path fill-rule="evenodd" clip-rule="evenodd" d="M53.6357 34.9701C55.3953 36.3851 58.7019 37.1402 59.5157 42.3677C60.3295 47.5805 55.7472 55.8726 48.8921 58.5487C44.1705 60.3963 41.4798 59.9271 37.1761 59.6558C35.3725 58.622 30.8195 57.9109 28.8986 52.5074C27.8722 49.6187 27.0584 46.0629 28.2974 42.9836L28.928 41.0847C29.3385 38.7899 29.1552 41.7885 29.8151 39.8749C29.9104 39.589 29.6318 39.7356 30.1963 38.8925L32.1172 36.8323C33.1437 35.8279 33.5542 35.9452 33.8988 34.6548C32.6744 34.3249 33.4736 34.3249 32.2492 33.9949L33.7669 32.2207C34.1188 31.7075 34.0381 32.074 34.2288 31.3629C35.6951 31.7075 35.2845 32.0154 36.5309 32.3526C35.1086 29.6546 36.0177 29.8159 38.2612 27.4918C39.8888 25.8055 40.9079 25.1016 43.1221 24.1119C46.0547 22.7995 49.508 22.4842 53.3204 22.8068C54.8234 22.9315 55.4026 23.408 56.9789 23.4447L57.3602 23.7306C57.932 24.0679 57.4555 23.8186 58.0054 24.0752C60.2708 25.1383 64.2593 26.8466 66.5541 27.0519C72.8886 27.6164 69.9853 26.8906 75.77 27.0592C77.3756 27.1032 77.3023 27.3671 78.7173 27.3964C77.5003 25.7981 75.9826 25.9814 74.7582 25.087C77.9182 24.713 77.7349 25.0136 78.1748 24.2878C78.5047 23.7379 78.9813 23.32 80.0224 23.364L80.9682 23.5473C81.0195 23.5473 81.1148 23.5253 81.1661 23.5253C81.2174 23.518 81.3201 23.4887 81.3714 23.474C81.4227 23.4593 81.5254 23.4227 81.5767 23.4153C83.3656 22.9534 84.392 21.4285 86.4449 20.9446C88.2705 20.5193 90.1401 20.5193 92.2369 17.5353C89.3922 17.7773 84.4507 22.9168 70.4472 18.2392C69.3841 17.8873 68.4897 17.4254 67.5219 17.2054C67.9251 16.3549 68.1231 15.6804 67.4486 14.654C66.774 13.6276 64.8531 12.8871 63.5994 12.5865C62.7343 12.2052 61.4512 11.7726 60.3515 11.516C59.3251 11.2741 57.8001 11.2081 56.6417 10.9368C57.2575 10.5336 59.2811 10.387 59.9922 10.3136C61.18 10.189 62.6683 10.2623 63.8927 10.2623C63.1815 9.32387 62.3091 9.52916 60.6448 9.66113L57.6754 9.68312C55.388 10.277 54.8601 10.6069 51.7001 10.6069C51.9934 9.78577 52.5579 9.71245 51.4215 9.59514C44.1852 8.86198 37.638 13.0777 35.5485 13.5689C36.2083 12.6744 45.1676 7.81355 46.7586 6.98507L56.5977 1.33235C57.3308 0.767813 57.3528 1.09041 57.6314 0.0566406L53.863 1.22971C50.8643 2.40278 43.5107 4.59494 40.5193 5.02751C37.2127 5.50407 40.6513 4.48497 35.8857 5.95864L34.0895 6.48652C32.2419 7.21235 33.085 7.35898 32.0219 7.70357C30.5336 8.18746 31.9926 7.17569 30.6582 7.71824C29.5805 8.15814 30.2697 8.27544 28.95 8.62736C29.6318 7.58627 30.5116 7.05105 31.5087 6.22991C32.9237 5.0715 33.9208 4.81489 34.2214 3.67849C32.5938 3.71514 31.9706 4.52163 30.8635 5.26213C29.7344 6.01729 28.818 6.60382 27.6962 7.36632C26.5085 8.1728 26.1053 8.70801 24.7122 9.32387C23.2459 9.97639 22.6374 10.431 21.3617 11.2594C21.6916 9.99105 22.674 9.18457 23.3412 7.96751C21.8309 8.37809 22.982 8.64203 20.6725 10.2257C19.4701 11.0468 19.822 11.0102 19.3528 11.868C18.473 13.4809 17.4026 13.305 15.401 15.8491C14.162 17.4254 12.1678 18.0192 11.4859 19.1263L11.2146 20.0574C11.2 20.1014 11.1707 20.1967 11.1487 20.2407C10.5255 21.5091 8.69988 21.8317 8.53125 23.7673C9.98292 23.8039 10.8407 24.1119 12.7983 24.1045C24.133 24.0752 24.7196 18.4518 36.8828 19.4709C38.5984 19.6175 39.9401 19.8302 41.4724 19.8228V20.4753C37.3594 20.5633 29.0379 24.8597 26.3985 26.8246C22.3001 29.8819 18.7663 34.0023 17.1093 39.2957C14.0813 48.9735 18.9862 56.3639 26.7505 60.2497C28.576 61.1661 32.4105 62.911 34.786 62.9844C36.201 63.5782 49.1854 63.3583 49.5446 63.2483C50.6004 62.9184 49.7939 63.3216 49.4713 63.0137C48.7748 62.3538 48.8114 63.4683 49.0607 62.6544C49.8672 62.4638 51.8321 62.2879 52.3746 61.8553C52.404 61.8333 52.4626 61.76 52.4846 61.738L52.6826 61.3421C55.1094 61.3421 57.8587 60.8582 59.457 59.8831C61.0993 58.8786 61.2826 59.2965 63.4381 58.5854C65.7403 57.8229 71.7156 55.836 72.7787 54.443C70.6892 54.9415 67.0453 56.7524 63.2182 56.7524C63.2842 56.7011 63.4015 56.5692 63.4381 56.6278C63.4748 56.6938 63.6068 56.5325 63.6581 56.5105C65.8502 55.3448 64.6479 55.814 65.7623 54.9782C66.0555 54.7582 66.5541 54.5676 66.8547 54.421C66.8327 53.4165 66.7007 53.2332 66.5248 52.4414C67.7125 51.6423 67.5585 51.9795 67.8298 50.8065L67.9471 50.2346C68.277 48.4603 68.8416 48.0131 70.5865 45.9456L75.4621 40.3588C75.3008 38.9218 85.9757 35.0654 86.3129 31.0403C85.4258 31.7148 85.6091 32.2353 83.7029 33.687C80.6602 36.0038 79.4358 36.0112 75.4401 35.9818C73.1233 35.9598 72.3094 36.3191 70.1613 36.3191C71.1437 34.9261 71.0191 36.3631 71.481 34.6695C69.8533 35.058 69.3475 35.344 67.2066 35.3513C62.2431 35.366 61.7225 32.1107 55.5639 31.7001C49.8965 31.6048 43.2247 30.4611 37.0734 34.5155C27.6376 40.7327 31.2228 49.2375 37.8799 49.5014C39.7422 49.5747 41.1499 48.9955 42.0516 48.0644C45.5049 44.4792 41.3111 41.3046 40.9592 40.8061C37.2787 35.5932 44.0459 33.2178 51.2162 34.5008C52.2573 34.6841 52.7559 34.8967 53.6503 34.9774L53.6357 34.9701Z" fill="url(#paint0_linear_14_183)"/>
<path fill-rule="evenodd" clip-rule="evenodd" d="M9.44025 84.9938C11.4051 84.9938 12.5709 84.7519 14.0372 83.9381C15.1663 83.3076 15.4522 83.051 16.0901 82.1492L16.6766 81.3793L16.9479 84.5393L18.4802 84.5466V74.1576H9.89482V75.9612H16.6693C16.4933 83.8868 7.91526 84.9059 4.53536 80.8661C0.913519 76.5478 1.8593 67.5078 7.95925 66.1148C12.241 65.1397 15.9288 67.8891 15.9948 70.7631H18.2529C17.6591 63.6147 7.53402 61.9064 2.94439 66.7453C-1.97516 71.9361 -0.376855 84.9938 9.44758 84.9938H9.44025ZM21.4129 74.6049H23.4437C23.4437 70.2718 30.0056 70.1399 30.7461 73.4171C31.8532 78.322 20.731 73.5784 20.731 80.6975C20.731 83.6888 23.1138 84.9865 26.1491 84.9865C28.6346 84.9865 29.7343 83.8281 30.8927 82.5011C31.4133 84.7299 31.4939 84.5319 34.28 84.5319V82.7284C33.0042 83.029 32.711 82.5671 32.6816 80.9394C32.6083 76.3791 33.5321 72.2587 31.1567 70.4918C29.0305 68.9082 21.4055 68.4903 21.4055 74.5975L21.4129 74.6049ZM22.7692 80.7048C22.7692 83.6155 28.1067 84.1507 30.0129 81.394C30.8121 80.2356 30.9001 78.8792 30.9001 76.863C28.4659 78.1534 22.7692 77.083 22.7692 80.7048ZM73.8123 74.6049H75.8432C75.8432 69.7586 83.0722 70.6824 83.0722 73.4758V74.6049C83.0722 77.4202 73.1378 74.1356 73.1378 80.7048C73.1378 85.6904 79.795 85.9323 82.3391 83.5788C82.9622 82.9996 82.6763 82.9703 83.3068 82.5084C83.5048 84.8472 84.7365 84.5393 86.6941 84.5393V82.7357C85.8069 82.941 86.2248 82.941 85.3377 82.7357C84.1353 77.5669 86.87 72.1341 83.0136 70.1545C80.6968 68.9595 73.8196 68.7982 73.8196 74.6049H73.8123ZM75.1687 80.2503C75.1687 84.2094 80.6014 83.7401 82.2731 81.482C83.3435 80.0376 83.0722 79.3558 83.0722 77.0903L78.4239 77.8601C77.0822 78.1241 75.1687 78.8426 75.1687 80.2503ZM43.7745 76.6357V78.4393C43.7745 87.2227 56.6489 86.7828 56.6489 79.5684C53.2836 79.5684 55.6298 79.737 53.5549 81.8925C51.3188 84.2167 47.1104 83.5202 45.996 79.8323C45.776 79.1065 45.908 78.432 45.5854 77.7575H56.8762C56.8762 73.4685 55.4172 69.9786 50.8495 69.5533C46.7218 69.1648 43.7745 72.2294 43.7745 76.6284V76.6357ZM45.8053 76.1812H54.838C54.6253 73.6371 53.0417 71.2103 50.3216 71.2103C47.7922 71.2103 45.8053 73.6517 45.8053 76.1812ZM60.9379 71.6649V69.8613H58.907V84.5393H60.9379V75.9539C60.9379 70.1106 68.8414 69.546 68.8414 74.8248V84.5393H70.8723V74.6049C70.8723 69.6193 66.554 68.9155 63.6066 69.8246C62.001 70.3232 62.0303 70.939 60.9306 71.6722L60.9379 71.6649ZM37.9018 72.7939V69.8613H36.0982V84.5393H38.1291V76.4085C38.1291 73.6224 40.3286 71.6649 43.5472 71.6649V69.634C41.4503 69.634 40.094 70.1252 38.8549 71.4889L37.9018 72.7939Z" fill="#E61E25"/>
<path d="M3.40646 92.2522L4.07364 92.3475C4.00032 92.8094 3.8097 93.1687 3.5091 93.4253C3.2085 93.6892 2.83459 93.8139 2.39469 93.8139C1.84481 93.8139 1.40491 93.6306 1.06765 93.2713C0.730396 92.9121 0.561768 92.3988 0.561768 91.7243C0.561768 91.2918 0.635084 90.9105 0.774386 90.5806C0.921019 90.258 1.13364 90.0087 1.43424 89.8474C1.7275 89.6861 2.0501 89.6055 2.39469 89.6055C2.83459 89.6055 3.18651 89.7154 3.46511 89.9354C3.74371 90.1553 3.91967 90.4706 4.00032 90.8812L3.34047 90.9838C3.27449 90.7126 3.16451 90.5073 3.00321 90.3753C2.84192 90.236 2.65129 90.17 2.42401 90.17C2.07942 90.17 1.80082 90.2946 1.58087 90.5366C1.36825 90.7859 1.25828 91.1744 1.25828 91.7097C1.25828 92.2522 1.36092 92.6408 1.56621 92.8901C1.77149 93.132 2.04277 93.2566 2.38002 93.2566C2.65129 93.2566 2.87124 93.176 3.05454 93.0074C3.23783 92.8461 3.3478 92.5895 3.39912 92.2522H3.40646ZM4.40356 91.7097C4.40356 90.9618 4.60885 90.412 5.02675 90.0527C5.37134 89.7521 5.79658 89.6055 6.29513 89.6055C6.84501 89.6055 7.29957 89.7888 7.65149 90.148C8.00341 90.5073 8.17937 91.0132 8.17937 91.651C8.17937 92.1716 8.09872 92.5748 7.94476 92.8754C7.79079 93.1687 7.56351 93.4033 7.26291 93.5646C6.96965 93.7259 6.63972 93.8139 6.2878 93.8139C5.72326 93.8139 5.2687 93.6306 4.91678 93.2713C4.56486 92.9121 4.39623 92.3915 4.39623 91.7097H4.40356ZM5.10007 91.7097C5.10007 92.2229 5.21005 92.6115 5.43733 92.8681C5.66461 93.1247 5.95055 93.2493 6.2878 93.2493C6.62506 93.2493 6.91099 93.1247 7.13828 92.8607C7.36556 92.6041 7.47553 92.2082 7.47553 91.6803C7.47553 91.1818 7.35823 90.8079 7.13828 90.5513C6.91099 90.2946 6.63239 90.17 6.29513 90.17C5.95055 90.17 5.67194 90.2946 5.44466 90.5513C5.21738 90.8079 5.1074 91.1891 5.1074 91.7023L5.10007 91.7097ZM8.97853 93.7259V89.6935H9.59439V90.2653C9.88765 89.8254 10.3202 89.6055 10.8774 89.6055C11.1194 89.6055 11.3467 89.6495 11.5446 89.7374C11.7499 89.8254 11.9039 89.9427 11.9992 90.082C12.1018 90.2213 12.1751 90.39 12.2118 90.5879C12.2338 90.7126 12.2485 90.9398 12.2485 91.2551V93.7332H11.5666V91.2844C11.5666 91.0058 11.5373 90.8005 11.486 90.6612C11.4346 90.5219 11.3393 90.412 11.2 90.3313C11.0681 90.2507 10.9068 90.2067 10.7235 90.2067C10.4302 90.2067 10.1809 90.302 9.97563 90.4853C9.76301 90.6686 9.66037 91.0205 9.66037 91.5337V93.7332H8.97853V93.7259ZM13.2969 93.7259V89.6935H13.9127V90.2653C14.206 89.8254 14.6386 89.6055 15.1958 89.6055C15.4377 89.6055 15.665 89.6495 15.863 89.7374C16.0683 89.8254 16.2222 89.9427 16.3175 90.082C16.4202 90.2213 16.4862 90.39 16.5301 90.5879C16.5521 90.7126 16.5668 90.9398 16.5668 91.2551V93.7332H15.885V91.2844C15.885 91.0058 15.8556 90.8005 15.8043 90.6612C15.753 90.5219 15.6577 90.412 15.5184 90.3313C15.3864 90.2507 15.2251 90.2067 15.0418 90.2067C14.7485 90.2067 14.4993 90.302 14.294 90.4853C14.0814 90.6686 13.9787 91.0205 13.9787 91.5337V93.7332H13.2969V93.7259ZM20.3719 92.4208L21.0758 92.5161C20.9658 92.9267 20.7605 93.2493 20.4599 93.4766C20.1593 93.7039 19.7781 93.8139 19.3088 93.8139C18.7223 93.8139 18.2531 93.6306 17.9085 93.2713C17.5639 92.9121 17.3953 92.3988 17.3953 91.7463C17.3953 91.0718 17.5712 90.5439 17.9158 90.17C18.2678 89.7961 18.715 89.6128 19.2722 89.6128C19.8074 89.6128 20.2473 89.7961 20.5919 90.1627C20.9291 90.5293 21.1051 91.0425 21.1051 91.7097C21.1051 91.7463 21.1051 91.8123 21.0978 91.893H18.0918C18.1211 92.3329 18.2384 92.6774 18.4657 92.9047C18.693 93.1393 18.9716 93.2566 19.3088 93.2566C19.5581 93.2566 19.7707 93.1907 19.9467 93.0587C20.1227 92.9267 20.262 92.7141 20.3646 92.4282L20.3719 92.4208ZM18.1358 91.3284H20.3793C20.3499 90.9912 20.262 90.7345 20.1227 90.5659C19.91 90.302 19.6241 90.17 19.2795 90.17C18.9643 90.17 18.7003 90.2727 18.4877 90.4853C18.2751 90.6979 18.1578 90.9765 18.1358 91.3284ZM24.5803 92.2522L25.2475 92.3475C25.1742 92.8094 24.9836 93.1687 24.683 93.4253C24.3824 93.6892 24.0084 93.8139 23.5685 93.8139C23.0187 93.8139 22.5788 93.6306 22.2415 93.2713C21.9043 92.9121 21.7356 92.3988 21.7356 91.7243C21.7356 91.2918 21.8089 90.9105 21.9482 90.5806C22.0949 90.258 22.3075 90.0087 22.6081 89.8474C22.9014 89.6861 23.224 89.6055 23.5685 89.6055C24.0084 89.6055 24.3604 89.7154 24.639 89.9354C24.9176 90.1553 25.0935 90.4706 25.1742 90.8812L24.5143 90.9838C24.4483 90.7126 24.3384 90.5073 24.1771 90.3753C24.0158 90.236 23.8252 90.17 23.5979 90.17C23.2533 90.17 22.9747 90.2946 22.7547 90.5366C22.5421 90.7859 22.4321 91.1744 22.4321 91.7097C22.4321 92.2522 22.5348 92.6408 22.7401 92.8901C22.9454 93.132 23.2166 93.2566 23.5539 93.2566C23.8252 93.2566 24.0451 93.176 24.2284 93.0074C24.4117 92.8461 24.5217 92.5895 24.573 92.2522H24.5803ZM27.315 93.1173L27.4103 93.7185C27.2197 93.7552 27.0438 93.7772 26.8971 93.7772C26.6479 93.7772 26.4572 93.7405 26.3179 93.6599C26.1786 93.5792 26.0833 93.4766 26.032 93.352C25.9733 93.2273 25.9513 92.956 25.9513 92.5455V90.2213H25.4455V89.6935H25.9513V88.6963L26.6332 88.2858V89.6935H27.315V90.2213H26.6332V92.5821C26.6332 92.7801 26.6479 92.9047 26.6698 92.956C26.6918 93.0147 26.7285 93.0587 26.7872 93.088C26.8385 93.1173 26.9191 93.1393 27.0218 93.1393C27.0951 93.1393 27.1977 93.132 27.3224 93.11L27.315 93.1173ZM27.9895 88.9383V88.1611H28.6714V88.9383H27.9895ZM27.9895 93.7259V89.6935H28.6714V93.7259H27.9895ZM29.7125 93.7259V89.6935H30.3283V90.2653C30.6216 89.8254 31.0542 89.6055 31.6114 89.6055C31.8533 89.6055 32.0806 89.6495 32.2786 89.7374C32.4839 89.8254 32.6378 89.9427 32.7331 90.082C32.8358 90.2213 32.9091 90.39 32.9458 90.5879C32.9678 90.7126 32.9824 90.9398 32.9824 91.2551V93.7332H32.3006V91.2844C32.3006 91.0058 32.2712 90.8005 32.2199 90.6612C32.1686 90.5219 32.0733 90.412 31.934 90.3313C31.802 90.2507 31.6407 90.2067 31.4574 90.2067C31.1642 90.2067 30.9149 90.302 30.7096 90.4853C30.497 90.6686 30.3943 91.0205 30.3943 91.5337V93.7332H29.7125V93.7259ZM33.9062 94.0631L34.5661 94.1584C34.5954 94.3637 34.6687 94.5104 34.8007 94.6057C34.9693 94.7303 35.2039 94.7963 35.4972 94.7963C35.8124 94.7963 36.0544 94.7303 36.2303 94.6057C36.4063 94.481 36.5163 94.3051 36.5823 94.0778C36.6189 93.9385 36.6336 93.6452 36.6336 93.2053C36.333 93.5572 35.9591 93.7332 35.5192 93.7332C34.962 93.7332 34.5367 93.5352 34.2288 93.132C33.9209 92.7361 33.7742 92.2522 33.7742 91.695C33.7742 91.3138 33.8475 90.9545 33.9795 90.6319C34.1188 90.3093 34.3168 90.06 34.5807 89.8767C34.8447 89.7008 35.1526 89.6128 35.5118 89.6128C35.9884 89.6128 36.377 89.8108 36.6849 90.192V89.6935H37.3154V93.176C37.3154 93.8065 37.2494 94.2464 37.1248 94.5104C37.0002 94.7743 36.7949 94.9796 36.5163 95.1336C36.2377 95.2875 35.9004 95.3608 35.4972 95.3608C35.0133 95.3608 34.632 95.2509 34.3314 95.0382C34.0382 94.8256 33.8915 94.4957 33.9062 94.0631ZM34.4634 91.6437C34.4634 92.1716 34.5661 92.5528 34.7787 92.7947C34.9913 93.0367 35.2552 93.1613 35.5705 93.1613C35.8858 93.1613 36.1497 93.044 36.3623 92.8021C36.5749 92.5601 36.6776 92.1862 36.6776 91.6657C36.6776 91.1744 36.5676 90.8005 36.3476 90.5513C36.1277 90.302 35.8638 90.1773 35.5558 90.1773C35.2479 90.1773 34.9913 90.302 34.7787 90.5439C34.5661 90.7932 34.4634 91.1525 34.4634 91.6437ZM41.2379 93.7259L40.0208 89.6935H40.7393L41.3845 92.0176L41.6118 92.8827C41.6191 92.8387 41.6924 92.5601 41.8171 92.0542L42.4549 89.6935H43.1588L43.7673 92.0323L43.9653 92.8021L44.1999 92.0249L44.8964 89.6935H45.5636L44.2952 93.7259H43.5913L42.9535 91.3138L42.7922 90.6246L41.9784 93.7259H41.2525H41.2379ZM45.8642 91.7097C45.8642 90.9618 46.0694 90.412 46.4874 90.0527C46.8319 89.7521 47.2572 89.6055 47.7557 89.6055C48.3056 89.6055 48.7602 89.7888 49.1121 90.148C49.464 90.5073 49.64 91.0132 49.64 91.651C49.64 92.1716 49.5593 92.5748 49.4054 92.8754C49.2514 93.1687 49.0241 93.4033 48.7235 93.5646C48.4302 93.7259 48.1003 93.8139 47.7484 93.8139C47.1839 93.8139 46.7293 93.6306 46.3774 93.2713C46.0255 92.9121 45.8568 92.3915 45.8568 91.7097H45.8642ZM46.5607 91.7097C46.5607 92.2229 46.6706 92.6115 46.8979 92.8681C47.1252 93.1247 47.4111 93.2493 47.7484 93.2493C48.0857 93.2493 48.3716 93.1247 48.5989 92.8607C48.8262 92.6041 48.9361 92.2082 48.9361 91.6803C48.9361 91.1818 48.8188 90.8079 48.5989 90.5513C48.3716 90.2946 48.093 90.17 47.7557 90.17C47.4111 90.17 47.1325 90.2946 46.9053 90.5513C46.678 90.8079 46.568 91.1891 46.568 91.7023L46.5607 91.7097ZM50.4318 93.7259V89.6935H51.0476V90.3093C51.2016 90.0234 51.3482 89.8328 51.4802 89.7448C51.6122 89.6495 51.7588 89.6055 51.9201 89.6055C52.1474 89.6055 52.382 89.6788 52.624 89.8254L52.382 90.4559C52.2134 90.3606 52.0521 90.3166 51.8835 90.3166C51.7368 90.3166 51.5975 90.3606 51.4802 90.4486C51.3629 90.5366 51.2749 90.6612 51.2309 90.8225C51.1576 91.0645 51.1136 91.3284 51.1136 91.6217V93.7259H50.4318ZM53.0125 93.7259V88.1611H53.6944V93.7259H53.0125ZM57.3602 93.7259V93.2127C57.1036 93.6086 56.7297 93.8065 56.2311 93.8065C55.9085 93.8065 55.6153 93.7185 55.344 93.5426C55.0727 93.3666 54.8675 93.1173 54.7208 92.8021C54.5742 92.4868 54.5009 92.1202 54.5009 91.7097C54.5009 91.3064 54.5669 90.9472 54.6988 90.6172C54.8308 90.2873 55.0361 90.038 55.3 89.8694C55.564 89.6935 55.8646 89.6055 56.1945 89.6055C56.4364 89.6055 56.6564 89.6568 56.847 89.7594C57.0376 89.8621 57.1916 89.9941 57.3089 90.1627V88.1611H57.9907V93.7259H57.3529H57.3602ZM55.1974 91.717C55.1974 92.2302 55.3074 92.6188 55.5273 92.8754C55.7472 93.132 56.0039 93.2566 56.2971 93.2566C56.5977 93.2566 56.847 93.132 57.0596 92.8901C57.2649 92.6481 57.3749 92.2742 57.3749 91.7756C57.3749 91.2258 57.2722 90.8225 57.0523 90.5659C56.8397 90.3093 56.5757 90.1773 56.2678 90.1773C55.9599 90.1773 55.7106 90.302 55.5053 90.5513C55.3 90.8005 55.1974 91.1891 55.1974 91.717ZM61.1067 94.0631L61.7666 94.1584C61.7959 94.3637 61.8692 94.5104 62.0012 94.6057C62.1698 94.7303 62.4044 94.7963 62.6977 94.7963C63.0129 94.7963 63.2549 94.7303 63.4308 94.6057C63.5995 94.481 63.7168 94.3051 63.7828 94.0778C63.8194 93.9385 63.8341 93.6452 63.8341 93.2053C63.5335 93.5572 63.1596 93.7332 62.7197 93.7332C62.1625 93.7332 61.7372 93.5352 61.4293 93.132C61.1214 92.7361 60.9747 92.2522 60.9747 91.695C60.9747 91.3138 61.048 90.9545 61.18 90.6319C61.3193 90.3093 61.5173 90.06 61.7812 89.8767C62.0452 89.7008 62.3531 89.6128 62.7123 89.6128C63.1889 89.6128 63.5775 89.8108 63.8854 90.192V89.6935H64.5159V93.176C64.5159 93.8065 64.4499 94.2464 64.3253 94.5104C64.2007 94.7743 63.9954 94.9796 63.7168 95.1336C63.4382 95.2875 63.1009 95.3608 62.6977 95.3608C62.2138 95.3608 61.8325 95.2509 61.5319 95.0382C61.2387 94.8256 61.092 94.4957 61.1067 94.0631ZM61.6639 91.6437C61.6639 92.1716 61.7666 92.5528 61.9792 92.7947C62.1918 93.0367 62.4557 93.1613 62.771 93.1613C63.0863 93.1613 63.3502 93.044 63.5628 92.8021C63.7754 92.5601 63.8781 92.1862 63.8781 91.6657C63.8781 91.1744 63.7681 90.8005 63.5481 90.5513C63.3282 90.302 63.0643 90.1773 62.7563 90.1773C62.4484 90.1773 62.1918 90.302 61.9792 90.5439C61.7666 90.7932 61.6639 91.1525 61.6639 91.6437ZM68.1891 93.22C67.9325 93.4399 67.6905 93.5866 67.4559 93.6745C67.2213 93.7625 66.972 93.8065 66.7008 93.8065C66.2609 93.8065 65.9163 93.6965 65.6817 93.4839C65.4397 93.2713 65.3224 92.9927 65.3224 92.6554C65.3224 92.4575 65.3664 92.2815 65.4544 92.1129C65.5424 91.9516 65.6597 91.8196 65.8063 91.7243C65.9529 91.629 66.1142 91.5484 66.2975 91.497C66.4295 91.4604 66.6348 91.4311 66.9061 91.3944C67.4559 91.3284 67.8665 91.2478 68.1231 91.1598C68.1231 91.0645 68.1304 91.0058 68.1304 90.9838C68.1304 90.7052 68.0645 90.5146 67.9325 90.3973C67.7565 90.2433 67.4999 90.17 67.1553 90.17C66.8327 90.17 66.5981 90.2287 66.4442 90.3386C66.2902 90.4486 66.1802 90.6539 66.1069 90.9398L65.4397 90.8445C65.4984 90.5586 65.601 90.324 65.7403 90.148C65.8796 89.9721 66.0849 89.8401 66.3488 89.7448C66.6128 89.6495 66.9207 89.6055 67.2653 89.6055C67.6099 89.6055 67.8885 89.6421 68.1084 89.7301C68.3211 89.8108 68.4824 89.9134 68.585 90.038C68.6876 90.1627 68.7536 90.3166 68.7976 90.5073C68.8196 90.6246 68.8343 90.8372 68.8343 91.1378V92.0469C68.8343 92.6774 68.8489 93.0807 68.8783 93.2493C68.9076 93.4179 68.9589 93.5792 69.0469 93.7332H68.3284C68.2624 93.5866 68.2184 93.4179 68.1964 93.2273L68.1891 93.22ZM68.1378 91.7023C67.8885 91.805 67.5146 91.8856 67.016 91.9589C66.7301 91.9956 66.5321 92.0469 66.4148 92.0982C66.2975 92.1496 66.2095 92.2229 66.1436 92.3182C66.0776 92.4135 66.0482 92.5235 66.0482 92.6408C66.0482 92.8241 66.1142 92.9707 66.2535 93.0953C66.3928 93.2127 66.5908 93.2786 66.8621 93.2786C67.126 93.2786 67.3606 93.22 67.5659 93.11C67.7712 92.9927 67.9252 92.8387 68.0205 92.6408C68.0938 92.4868 68.1304 92.2595 68.1304 91.9589L68.1378 91.7097V91.7023ZM69.8827 93.7259V89.6935H70.4986V90.2653C70.6232 90.0674 70.7918 89.9061 71.0045 89.7888C71.2171 89.6715 71.4517 89.6055 71.723 89.6055C72.0236 89.6055 72.2655 89.6641 72.4561 89.7888C72.6468 89.9134 72.7787 90.082 72.8594 90.3093C73.182 89.8401 73.5999 89.6055 74.1058 89.6055C74.509 89.6055 74.8169 89.7154 75.0295 89.9354C75.2422 90.1553 75.3521 90.4999 75.3521 90.9545V93.7185H74.6703V91.1818C74.6703 90.9105 74.6483 90.7126 74.6043 90.5952C74.5603 90.4779 74.4797 90.3753 74.3624 90.302C74.2451 90.2287 74.1058 90.192 73.9518 90.192C73.6659 90.192 73.4312 90.2873 73.2406 90.4779C73.05 90.6686 72.962 90.9692 72.962 91.3797V93.7185H72.2802V91.1011C72.2802 90.8005 72.2215 90.5733 72.1115 90.4193C72.0016 90.2653 71.8183 90.192 71.5617 90.192C71.371 90.192 71.1951 90.2433 71.0265 90.346C70.8652 90.4486 70.7478 90.5952 70.6745 90.7932C70.6012 90.9912 70.5646 91.2698 70.5646 91.6363V93.7259H69.8827ZM79.1059 92.4208L79.8098 92.5161C79.6998 92.9267 79.4945 93.2493 79.1939 93.4766C78.8933 93.7039 78.5121 93.8139 78.0429 93.8139C77.4563 93.8139 76.9871 93.6306 76.6425 93.2713C76.2979 92.9121 76.1293 92.3988 76.1293 91.7463C76.1293 91.0718 76.3053 90.5439 76.6498 90.17C77.0018 89.7961 77.449 89.6128 78.0062 89.6128C78.5414 89.6128 78.9813 89.7961 79.3259 90.1627C79.6632 90.5293 79.8391 91.0425 79.8391 91.7097C79.8391 91.7463 79.8391 91.8123 79.8318 91.893H76.8258C76.8551 92.3329 76.9724 92.6774 77.1997 92.9047C77.427 93.1393 77.7056 93.2566 78.0429 93.2566C78.2921 93.2566 78.5048 93.1907 78.6807 93.0587C78.8567 92.9267 78.996 92.7141 79.0986 92.4282L79.1059 92.4208ZM76.8698 91.3284H79.1133C79.084 90.9912 78.996 90.7345 78.8567 90.5659C78.6367 90.302 78.3581 90.17 78.0135 90.17C77.6983 90.17 77.4343 90.2727 77.2217 90.4853C77.0091 90.6979 76.8918 90.9765 76.8698 91.3284ZM80.6676 93.7259V89.6935H81.2835V90.3093C81.4374 90.0234 81.5841 89.8328 81.716 89.7448C81.848 89.6495 81.9946 89.6055 82.1559 89.6055C82.3832 89.6055 82.6178 89.6788 82.8598 89.8254L82.6178 90.4559C82.4492 90.3606 82.2879 90.3166 82.1193 90.3166C81.9726 90.3166 81.8333 90.3606 81.716 90.4486C81.5987 90.5366 81.5107 90.6612 81.4668 90.8225C81.3934 91.0645 81.3494 91.3284 81.3494 91.6217V93.7259H80.6676ZM82.9917 92.5235L83.6663 92.4135C83.7029 92.6848 83.8129 92.8901 83.9815 93.0367C84.1575 93.1833 84.3994 93.2493 84.7073 93.2493C85.0226 93.2493 85.2572 93.1833 85.4112 93.0587C85.5652 92.9341 85.6385 92.7801 85.6385 92.6115C85.6385 92.4575 85.5725 92.3329 85.4332 92.2449C85.3379 92.1862 85.1033 92.1056 84.7367 92.0103C84.2381 91.8856 83.8935 91.7756 83.6956 91.6803C83.505 91.585 83.3583 91.4604 83.2557 91.2991C83.153 91.1378 83.1017 90.9545 83.1017 90.7639C83.1017 90.5806 83.1457 90.4193 83.2263 90.2653C83.307 90.1114 83.417 89.9867 83.5636 89.8841C83.6663 89.8034 83.8129 89.7374 83.9962 89.6861C84.1795 89.6348 84.3774 89.6055 84.5827 89.6055C84.898 89.6055 85.1766 89.6495 85.4112 89.7448C85.6531 89.8328 85.8291 89.9574 85.9391 90.1187C86.049 90.2727 86.1297 90.4853 86.1737 90.7419L85.5065 90.8372C85.4772 90.6246 85.3892 90.4633 85.2426 90.346C85.0959 90.2287 84.8906 90.17 84.6267 90.17C84.3114 90.17 84.0915 90.2213 83.9595 90.324C83.8275 90.4266 83.7616 90.5513 83.7616 90.6906C83.7616 90.7785 83.7909 90.8592 83.8422 90.9325C83.9009 91.0058 83.9815 91.0645 84.1061 91.1158C84.1721 91.1451 84.3774 91.1964 84.7073 91.2918C85.1912 91.4164 85.5285 91.5264 85.7191 91.607C85.9097 91.6877 86.0637 91.8123 86.1664 91.9663C86.2763 92.1202 86.3276 92.3182 86.3276 92.5528C86.3276 92.7801 86.2617 92.9927 86.1297 93.1907C85.9977 93.3886 85.8071 93.5499 85.5578 93.6599C85.3085 93.7699 85.0226 93.8212 84.7073 93.8212C84.1868 93.8212 83.7836 93.7112 83.5123 93.4986C83.241 93.2786 83.0651 92.9634 82.9844 92.5308L82.9917 92.5235Z" fill="#FFFBE6"/>
</g>
<defs>
<linearGradient id="paint0_linear_14_183" x1="8.53609" y1="31.8193" x2="92.2391" y2="31.8193" gradientUnits="userSpaceOnUse">
<stop stop-color="#B42F32"/>
<stop offset="1" stop-color="#E62A2E"/>
</linearGradient>
<clipPath id="clip0_14_183">
<rect width="92" height="95.3117" fill="white" transform="translate(0.238037 0.0493164)"/>
</clipPath>
</defs>
</svg>
