<svg width="225" height="145" viewBox="0 0 225 145" fill="none" xmlns="http://www.w3.org/2000/svg">
<path d="M27.1897 135.052C26.4379 134.6 25.5777 134.303 24.6089 134.162C23.661 134.016 22.6031 134.071 21.4353 134.325L2.35375 138.476L3.75202 145L4.97198 144.735L3.85067 139.503L21.6184 135.637C22.5777 135.429 23.462 135.379 24.2713 135.489C25.0552 135.582 25.7469 135.806 26.3465 136.159C26.9878 136.503 27.5138 136.972 27.9245 137.564C28.3515 138.131 28.667 138.788 28.8708 139.535L30.1221 139.263C29.9076 138.364 29.5479 137.552 29.0431 136.826C28.5383 136.1 27.9205 135.509 27.1897 135.052Z" fill="#FFD700"/>
<path d="M22.6989 111.582L21.451 111.606L21.4964 113.991L10.7457 114.199L10.7659 115.263C11.236 115.297 11.7165 115.32 12.2076 115.332C12.6773 115.344 13.1361 115.346 13.584 115.337C12.7591 115.719 12.0565 116.367 11.4764 117.281C10.875 118.195 10.5864 119.287 10.6105 120.555C10.6276 121.457 10.8142 122.292 11.1702 123.059C11.5045 123.805 11.9545 124.463 12.5201 125.032C13.1071 125.602 13.7876 126.04 14.5616 126.347C15.3357 126.655 16.1387 126.801 16.9706 126.785C17.8451 126.768 18.6526 126.591 19.3931 126.254C20.1335 125.917 20.7862 125.453 21.3511 124.862C21.916 124.271 22.3513 123.596 22.6569 122.837C22.9622 122.057 23.1062 121.216 23.0891 120.314C23.0768 119.669 22.98 119.069 22.7987 118.513C22.6171 117.936 22.3726 117.425 22.0654 116.979C21.7799 116.555 21.4637 116.196 21.1166 115.901C20.7479 115.586 20.3701 115.357 19.9833 115.214C20.2606 115.208 20.5166 115.203 20.7512 115.199C20.9645 115.195 21.1991 115.19 21.4551 115.185L22.767 115.16L22.6989 111.582ZM11.8903 120.53C11.8773 119.842 11.993 119.195 12.2375 118.588C12.4607 117.982 12.7918 117.438 13.2307 116.957C13.6701 116.497 14.1966 116.132 14.8103 115.862C15.4023 115.571 16.0502 115.419 16.7541 115.405C17.458 115.392 18.1219 115.518 18.7459 115.786C19.348 116.032 19.8776 116.388 20.3345 116.852C20.7911 117.294 21.153 117.814 21.4204 118.411C21.6665 119.008 21.7961 119.651 21.8092 120.338C21.8223 121.026 21.717 121.662 21.4934 122.247C21.2698 122.832 20.949 123.354 20.531 123.814C20.0924 124.317 19.5665 124.714 18.9532 125.005C18.3399 125.296 17.6707 125.449 16.9454 125.463C16.2628 125.476 15.6207 125.37 15.0189 125.145C14.4167 124.899 13.8874 124.555 13.4308 124.112C12.9534 123.691 12.5807 123.172 12.3129 122.553C12.0451 121.935 11.9042 121.261 11.8903 120.53Z" fill="#FFD700"/>
<path d="M23.4223 103.861L24.7473 97.7835L23.5282 97.5137L22.9928 99.9701L19.867 99.2785L18.3997 96.8411C19.3822 96.4423 20.3589 96.0202 21.3297 95.5748C22.2797 95.1247 23.2505 94.6794 24.2422 94.2386L23.9058 95.7817L25.1248 96.0514L26.3948 90.2254L25.1758 89.9557L24.5786 92.6955C23.439 93.2136 22.3121 93.7235 21.198 94.2252C20.063 94.7223 18.9175 95.2171 17.7617 95.7096C17.283 94.8994 16.8508 94.1766 16.4651 93.541C16.0632 92.8799 15.6182 92.1652 15.1304 91.3971L15.6315 89.0982L14.4125 88.8284L13.1425 94.6544L14.3615 94.9242L14.7803 93.0032L18.2729 98.9257L0.76887 95.0525L0 98.5796L1.21903 98.8493L1.70644 96.6134L22.7113 101.261L22.2033 103.592L23.4223 103.861Z" fill="#FFD700"/>
<path d="M35.3359 69.1535L34.2129 68.6048L33.1795 70.7516L23.5045 66.0243L23.0436 66.9816C23.4473 67.2267 23.8653 67.4667 24.2975 67.7018C24.7105 67.9275 25.1186 68.1388 25.5217 68.3358C24.6148 68.2988 23.6971 68.5551 22.7686 69.1048C21.8209 69.6451 21.0724 70.4858 20.5231 71.6269C20.1321 72.4392 19.9226 73.2685 19.8946 74.1148C19.8567 74.9325 19.9616 75.7243 20.2094 76.4904C20.4763 77.2658 20.8855 77.9674 21.4369 78.5952C21.9884 79.223 22.6384 79.7198 23.3871 80.0856C24.1741 80.4701 24.9734 80.6815 25.7849 80.7197C26.5965 80.7579 27.3871 80.6425 28.1567 80.3735C28.9264 80.1046 29.6181 79.702 30.2319 79.1658C30.855 78.6102 31.362 77.9263 31.753 77.1139C32.0323 76.5337 32.2162 75.9547 32.3047 75.3768C32.4025 74.7795 32.4148 74.2122 32.3415 73.6747C32.2781 73.166 32.1581 72.7012 31.9813 72.2803C31.7946 71.8308 31.561 71.4539 31.2807 71.1497C31.5302 71.2716 31.7606 71.3841 31.9717 71.4873C32.1637 71.5811 32.3749 71.6843 32.6052 71.7969L33.7858 72.3737L35.3359 69.1535ZM21.6749 72.1897C21.9728 71.5708 22.3673 71.0468 22.8583 70.6178C23.3301 70.1795 23.87 69.846 24.478 69.6175C25.0766 69.4083 25.7101 69.3237 26.3785 69.3636C27.037 69.3748 27.6831 69.5352 28.3165 69.8447C28.95 70.1542 29.4846 70.5707 29.9203 71.0941C30.3461 71.5889 30.6581 72.1474 30.8564 72.7699C31.064 73.373 31.1527 74.0016 31.1224 74.6557C31.0729 75.3005 30.8992 75.9323 30.6013 76.5512C30.3033 77.1701 29.9231 77.689 29.4606 78.108C28.9981 78.5271 28.4771 78.8459 27.8977 79.0644C27.2804 79.3123 26.6329 79.4259 25.9552 79.4054C25.2775 79.3848 24.6123 79.215 23.9596 78.8961C23.3453 78.596 22.8206 78.2082 22.3855 77.7328C21.9598 77.2381 21.6431 76.6892 21.4354 76.0861C21.1993 75.4929 21.101 74.8596 21.1407 74.1862C21.1803 73.5127 21.3584 72.8472 21.6749 72.1897Z" fill="#FFD700"/>
<path d="M43.3972 57.7465L42.4078 56.98L40.9643 58.8714L36.753 55.6088C36.2287 55.2026 35.8312 54.7184 35.5606 54.1563C35.273 53.581 35.135 52.986 35.1466 52.3713C35.1192 51.8078 35.1984 51.2455 35.3844 50.6846C35.5664 50.0935 35.8525 49.5423 36.2426 49.0311L35.2415 48.1742C34.9593 48.5792 34.7278 49.0235 34.5471 49.5072C34.3794 49.9738 34.2689 50.4711 34.2156 50.9993C34.1494 51.5445 34.1684 52.1015 34.2725 52.6703C34.3728 53.2089 34.5628 53.7357 34.8425 54.2507C34.542 54.045 34.3495 53.9094 34.2649 53.8439C34.1803 53.7784 33.9878 53.6428 33.6873 53.4371L32.2842 52.4721L30.2359 55.1558L31.2253 55.9224L32.6298 54.0821L40.1644 59.9194L38.6428 61.913L39.6322 62.6796L43.3972 57.7465Z" fill="#FFD700"/>
<path d="M54.6051 45.8771L53.7563 44.9552L51.8324 46.7534L45.39 39.7567L48.1115 37.213L47.2409 36.2675L44.5194 38.8112L39.2088 33.0436L38.2469 33.9427L43.5575 39.7102L41.5164 41.618L42.387 42.5635L44.4281 40.6557L51.7194 48.5743L54.6051 45.8771Z" fill="#FFD700"/>
<path d="M74.2475 32.1719L73.6016 31.0959L71.5752 32.3307L66.0106 23.0607L65.107 23.6113C65.3134 24.0382 65.5344 24.4687 65.7701 24.9029C65.9947 25.3186 66.223 25.7197 66.4548 26.1059C65.7139 25.5777 64.8055 25.2897 63.7296 25.2419C62.6427 25.1757 61.5606 25.4707 60.4836 26.127C59.7168 26.5942 59.0932 27.1752 58.6126 27.87C58.1393 28.5352 57.7997 29.2571 57.5938 30.0356C57.399 30.8326 57.3634 31.6456 57.4871 32.4746C57.6107 33.3036 57.8878 34.0767 58.3184 34.7941C58.7711 35.5482 59.3276 36.1637 59.9878 36.6406C60.6481 37.1175 61.3737 37.454 62.1648 37.6503C62.9558 37.8466 63.7536 37.888 64.5581 37.7745C65.3809 37.65 66.1757 37.3541 66.9425 36.8869C67.4901 36.5532 67.9571 36.1681 68.3435 35.7318C68.748 35.2843 69.0647 34.815 69.2935 34.3239C69.5151 33.8623 69.6654 33.4065 69.7443 32.9565C69.8304 32.477 69.838 32.0327 69.7671 31.6238C69.9106 31.8629 70.0431 32.0836 70.1646 32.2859C70.275 32.4698 70.3964 32.6722 70.5289 32.8929L71.2079 34.024L74.2475 32.1719ZM61.146 27.2306C61.7302 26.8747 62.3441 26.6513 62.9878 26.5605C63.6204 26.4514 64.2534 26.4676 64.8869 26.6091C65.5021 26.7618 66.0794 27.038 66.6186 27.438C67.1651 27.8083 67.6205 28.297 67.9849 28.904C68.3492 29.511 68.5728 30.1534 68.6557 30.8314C68.7458 31.4799 68.7059 32.1197 68.5361 32.7506C68.3846 33.3705 68.1195 33.9465 67.7409 34.4787C67.3512 34.9925 66.8642 35.4274 66.28 35.7833C65.6958 36.1393 65.0966 36.3663 64.4822 36.4643C63.8678 36.5623 63.2586 36.5442 62.6544 36.4099C62.0026 36.2795 61.398 36.0199 60.8405 35.6312C60.283 35.2424 59.8165 34.7353 59.4412 34.1099C59.0879 33.5214 58.857 32.9084 58.7487 32.271C58.6586 31.6225 58.6893 30.9884 58.8409 30.3685C58.9631 29.7414 59.2226 29.1562 59.6196 28.6129C60.0165 28.0696 60.5253 27.6088 61.146 27.2306Z" fill="#FFD700"/>
<path d="M112.189 20.5924L111.317 19.6387C110.616 20.1909 109.85 20.6544 109.018 21.0295C108.205 21.3803 107.333 21.6198 106.403 21.748C105.029 21.9374 103.703 21.849 102.426 21.4827C101.146 21.095 99.9999 20.5046 98.9877 19.7112C97.9573 18.942 97.094 17.9763 96.3978 16.8139C95.7016 15.6516 95.2596 14.3782 95.0716 12.994C94.8807 11.5884 94.9656 10.2316 95.3263 8.92351C95.6841 7.59416 96.2553 6.40896 97.0398 5.3679C97.8215 4.30555 98.7786 3.42511 99.9111 2.7266C101.041 2.00679 102.303 1.55073 103.698 1.3584C104.502 1.24767 105.298 1.24634 106.088 1.3544C106.896 1.43826 107.674 1.61312 108.42 1.87901L108.798 4.65822L110.034 4.48775L109.548 0.909914C108.612 0.518267 107.639 0.251037 106.629 0.108223C105.641 -0.0375032 104.607 -0.0360603 103.529 0.112552C101.965 0.328186 100.538 0.839508 99.2477 1.64652C97.9547 2.43223 96.8703 3.40614 95.9945 4.56825C95.1005 5.75457 94.453 7.09132 94.052 8.57849C93.6481 10.0444 93.5532 11.5653 93.7672 13.1412C93.9813 14.7172 94.4782 16.1565 95.2581 17.4592C96.0379 18.7619 97.0151 19.8529 98.1897 20.7324C99.3461 21.6361 100.652 22.2913 102.107 22.6982C103.562 23.1051 105.071 23.2008 106.635 22.9851C107.713 22.8365 108.709 22.5582 109.623 22.1502C110.555 21.7181 111.41 21.1988 112.189 20.5924Z" fill="#FFD700"/>
<path d="M130.723 21.5092C131.332 20.9871 131.833 20.3678 132.226 19.6512C132.64 18.9367 132.89 18.1409 132.977 17.264C133.061 16.4084 132.972 15.5786 132.708 14.7745C132.466 13.9725 132.098 13.255 131.603 12.6221C131.085 12.0084 130.449 11.5016 129.695 11.1019C128.965 10.6829 128.164 10.4297 127.294 10.3423C126.423 10.2548 125.589 10.3438 124.791 10.6093C123.995 10.8534 123.293 11.2257 122.686 11.7264C122.056 12.2463 121.544 12.8753 121.149 13.6133C120.754 14.3513 120.515 15.1481 120.43 16.0037C120.343 16.8806 120.421 17.7201 120.663 18.5221C120.908 19.3027 121.289 19.9998 121.807 20.6135C122.302 21.2465 122.905 21.7607 123.616 22.1562C124.349 22.5538 125.161 22.7974 126.052 22.8869C126.923 22.9744 127.756 22.896 128.552 22.652C129.369 22.41 130.093 22.0291 130.723 21.5092ZM122.823 19.7759C122.419 19.3033 122.12 18.7548 121.924 18.1303C121.729 17.5058 121.666 16.8407 121.736 16.1348C121.803 15.4504 121.994 14.8215 122.308 14.2482C122.622 13.6749 123.025 13.1754 123.518 12.7496C124.008 12.3452 124.563 12.0445 125.183 11.8476C125.803 11.6506 126.452 11.5863 127.132 11.6545C127.811 11.7227 128.435 11.915 129.004 12.2314C129.595 12.5499 130.09 12.9562 130.492 13.4501C130.912 13.9676 131.219 14.5493 131.412 15.1951C131.608 15.8196 131.673 16.4634 131.607 17.1264C131.537 17.8323 131.346 18.4719 131.032 19.0452C130.717 19.6185 130.306 20.0955 129.796 20.4764C129.304 20.9022 128.737 21.2125 128.096 21.4073C127.476 21.6043 126.827 21.6686 126.147 21.6004C125.468 21.5322 124.844 21.3398 124.275 21.0235C123.706 20.7071 123.222 20.2912 122.823 19.7759Z" fill="#FFD700"/>
<path d="M145.16 26.592L145.558 25.4L143.313 24.6398L145.006 19.5665C145.21 18.9552 145.518 18.436 145.931 18.0088C146.363 17.5885 146.867 17.2601 147.441 17.0237C147.968 16.7939 148.548 16.673 149.183 16.661C149.817 16.649 150.447 16.7492 151.074 16.9615C151.91 17.2899 152.459 17.7705 152.72 18.4033C153.009 19.0226 153.061 19.6753 152.877 20.3614L150.624 27.1156L148.258 26.3143L147.86 27.5063L153.715 29.4889L154.112 28.297L151.868 27.5368L154.233 20.4464C154.533 19.4139 154.464 18.4723 154.028 17.6215C153.591 16.7708 152.817 16.157 151.705 15.7804C150.572 15.3968 149.462 15.3498 148.375 15.6394C147.289 15.9289 146.383 16.484 145.659 17.3046C145.754 16.9514 145.836 16.6389 145.904 16.3672C145.979 16.0751 146.064 15.7525 146.16 15.3992L146.497 14.2887L143.311 13.2101L142.914 14.402L145.098 15.1416L142.07 24.2186L139.703 23.4173L139.306 24.6093L145.16 26.592Z" fill="#FFD700"/>
<path d="M178.297 31.2474L180.263 32.5177L180.937 31.4591L176.222 28.4138L175.549 29.4724L177.138 30.4991C175.633 31.3908 174.134 32.2736 172.64 33.1472C171.146 34.0209 169.745 34.8899 168.434 35.7543C168.659 34.0867 168.857 32.4016 169.028 30.6992C169.199 28.9968 169.361 27.2885 169.514 25.5745L171.292 26.723L171.965 25.6644L166.981 22.4451L166.308 23.5037L168.382 24.8436C168.161 27.024 167.95 29.1862 167.752 31.3304C167.553 33.4746 167.349 35.6278 167.139 37.7901C169.001 36.6951 170.858 35.6091 172.709 34.5323C174.56 33.4554 176.423 32.3604 178.297 31.2474Z" fill="#FFD700"/>
<path d="M192.074 43.1616C192.654 43.7631 193.006 44.4676 193.129 45.2751C193.284 46.083 193.234 46.8803 192.981 47.667C191.557 47.0225 190.133 46.378 188.71 45.7335C187.316 45.0895 185.907 44.4452 184.483 43.8008C184.9 43.1837 185.412 42.6974 186.021 42.3416C186.645 41.9709 187.305 41.7451 188 41.6643C188.725 41.5839 189.441 41.663 190.146 41.9015C190.867 42.1555 191.51 42.5755 192.074 43.1616ZM188.152 52.8849L188.283 51.6328C187.665 51.6083 187.071 51.4703 186.502 51.2186C185.932 50.9668 185.417 50.6019 184.956 50.1238C184.258 49.399 183.817 48.5715 183.635 47.6415C183.452 46.7116 183.526 45.8158 183.855 44.9543C185.504 45.6781 187.131 46.4092 188.734 47.1476C190.352 47.9014 191.979 48.6477 193.612 49.3865C193.923 48.7831 194.151 48.1709 194.296 47.5498C194.456 46.9138 194.518 46.2991 194.481 45.7057C194.46 45.0669 194.318 44.4568 194.055 43.8752C193.808 43.2787 193.453 42.7413 192.993 42.2632C192.383 41.6309 191.689 41.1569 190.909 40.8413C190.159 40.526 189.385 40.3549 188.585 40.3278C187.786 40.3006 187 40.4409 186.226 40.7486C185.452 41.0562 184.758 41.5095 184.146 42.1084C183.518 42.7223 183.048 43.4069 182.735 44.1623C182.423 44.9177 182.26 45.7057 182.248 46.5264C182.236 47.347 182.375 48.1396 182.666 48.904C182.971 49.6838 183.428 50.3898 184.038 51.0222C184.617 51.6237 185.259 52.0741 185.964 52.3734C186.669 52.6727 187.398 52.8432 188.152 52.8849Z" fill="#FFD700"/>
<path d="M199.473 69.1485L199.857 67.9027C199.339 67.7273 198.855 67.466 198.405 67.1188C197.955 66.7716 197.568 66.345 197.245 65.8389C196.876 65.2605 196.631 64.6394 196.512 63.9756C196.404 63.3299 196.414 62.7099 196.541 62.1158C196.664 61.4738 196.907 60.8816 197.271 60.3389C197.653 59.7847 198.14 59.3156 198.732 58.9317C199.324 58.5479 199.94 58.3015 200.581 58.1927C201.24 58.0723 201.9 58.0919 202.56 58.2517C203.15 58.3806 203.705 58.6341 204.225 59.0122C204.764 59.3788 205.218 59.8512 205.588 60.4296C205.876 60.8815 206.085 61.347 206.213 61.8261C206.342 62.3052 206.393 62.783 206.368 63.2596L204.376 64.5508L205.034 65.5811L207.672 63.8711C207.742 63.1866 207.691 62.4911 207.519 61.7847C207.365 61.0667 207.08 60.3824 206.664 59.7317C206.191 58.9906 205.603 58.3877 204.9 57.9232C204.227 57.465 203.501 57.1432 202.723 56.9576C201.944 56.772 201.146 56.753 200.327 56.9007C199.508 57.0483 198.739 57.3548 198.022 57.8201C197.286 58.2971 196.682 58.8805 196.209 59.5704C195.755 60.2487 195.456 60.9921 195.313 61.8006C195.128 62.5847 195.104 63.3803 195.239 64.1874C195.385 65.0126 195.695 65.7957 196.169 66.5368C196.584 67.1875 197.07 67.7291 197.625 68.1615C198.198 68.5822 198.814 68.9112 199.473 69.1485Z" fill="#FFD700"/>
<path d="M204.525 82.7323L205.678 82.2496L204.671 79.8083L213.417 76.1444L214.842 79.5979L216.024 79.1028L214.599 75.6492L221.81 72.629L221.306 71.4084L214.096 74.4286L213.027 71.8384L211.845 72.3335L212.914 74.9237L203.014 79.0703L204.525 82.7323Z" fill="#FFD700"/>
<path d="M208.857 97.4059L210.07 97.1105L209.506 94.7599L219.958 92.2152L219.071 88.517L217.858 88.8124L218.437 91.2256L209.198 93.475L208.619 91.0618L207.406 91.3572L208.857 97.4059ZM224.193 91.6153C224.483 91.5446 224.697 91.3821 224.833 91.1277C224.99 90.8683 225.037 90.6027 224.971 90.3311C224.911 90.0804 224.752 89.8758 224.495 89.7174C224.258 89.5539 223.995 89.5075 223.704 89.5782C223.414 89.6488 223.19 89.8139 223.033 90.0733C222.896 90.3277 222.858 90.5803 222.918 90.831C222.983 91.1026 223.134 91.3202 223.371 91.4837C223.629 91.6421 223.903 91.686 224.193 91.6153Z" fill="#FFD700"/>
<path d="M212.525 115.669C213.133 116.193 213.819 116.593 214.584 116.871C215.349 117.169 216.169 117.293 217.042 117.24C217.894 117.189 218.693 116.969 219.439 116.58C220.187 116.213 220.832 115.733 221.374 115.14C221.894 114.528 222.29 113.815 222.563 113.002C222.858 112.209 222.98 111.373 222.928 110.493C222.876 109.613 222.657 108.797 222.271 108.045C221.906 107.292 221.43 106.653 220.843 106.128C220.234 105.583 219.537 105.173 218.751 104.897C217.965 104.621 217.147 104.508 216.295 104.559C215.422 104.611 214.611 104.821 213.863 105.189C213.137 105.556 212.514 106.045 211.994 106.657C211.452 107.25 211.044 107.931 210.768 108.701C210.494 109.493 210.384 110.339 210.437 111.24C210.489 112.12 210.697 112.936 211.062 113.69C211.428 114.465 211.916 115.125 212.525 115.669ZM212.976 107.535C213.375 107.059 213.865 106.675 214.447 106.382C215.028 106.088 215.67 105.921 216.373 105.879C217.054 105.838 217.701 105.929 218.312 106.15C218.924 106.372 219.477 106.694 219.972 107.117C220.446 107.541 220.828 108.046 221.119 108.631C221.41 109.217 221.576 109.853 221.616 110.539C221.657 111.226 221.567 111.877 221.347 112.493C221.128 113.131 220.808 113.688 220.387 114.166C219.947 114.666 219.425 115.063 218.822 115.357C218.241 115.651 217.621 115.817 216.96 115.856C216.258 115.898 215.6 115.809 214.989 115.587C214.377 115.365 213.845 115.031 213.391 114.584C212.896 114.162 212.502 113.647 212.21 113.04C211.919 112.454 211.753 111.818 211.713 111.132C211.673 110.445 211.762 109.794 211.983 109.177C212.203 108.561 212.534 108.014 212.976 107.535Z" fill="#FFD700"/>
<path d="M209.825 130.835L211.056 131.043L211.447 128.689L216.686 129.572C217.317 129.678 217.875 129.902 218.359 130.245C218.839 130.61 219.241 131.059 219.563 131.592C219.872 132.08 220.082 132.639 220.194 133.268C220.306 133.897 220.307 134.54 220.198 135.197C220.008 136.081 219.624 136.702 219.045 137.062C218.484 137.447 217.852 137.603 217.151 137.528L210.175 136.353L210.587 133.873L209.356 133.666L208.337 139.803L209.568 140.011L209.959 137.657L217.282 138.89C218.341 139.025 219.253 138.808 220.018 138.24C220.783 137.671 221.262 136.804 221.455 135.638C221.652 134.45 221.523 133.339 221.067 132.303C220.612 131.268 219.925 130.455 219.006 129.864C219.367 129.903 219.687 129.935 219.964 129.96C220.262 129.988 220.591 130.022 220.953 130.061L222.094 130.221L222.648 126.882L221.417 126.674L221.037 128.964L211.663 127.385L212.074 124.905L210.843 124.698L209.825 130.835Z" fill="#FFD700"/>
</svg>
