<svg width="195" height="46" viewBox="0 0 195 46" fill="none" xmlns="http://www.w3.org/2000/svg">
<g clip-path="url(#clip0_14_167)">
<path d="M70.3835 19.1543H76.462C78.155 19.1543 79.5207 19.5683 80.5589 20.3963C81.5972 21.2164 82.3374 22.2983 82.3374 23.6418C82.3374 24.5244 82.3192 26.2196 81.8047 27.0163C81.2996 27.8053 80.5326 28.395 79.5037 28.7856C78.4748 29.1761 77.3567 29.3792 76.6271 29.3948L74.0097 29.4417V34.5383H70.3835V19.1543ZM73.9535 22.4357V26.4194L76.1727 26.4194C76.8368 26.4194 77.4027 26.2202 77.8704 25.8218C78.3474 25.4235 78.5859 24.9509 78.5859 24.4041C78.5859 23.7792 78.3193 23.2949 77.7862 22.9513C77.253 22.6076 76.6992 22.4355 75.717 22.4355L73.9535 22.4357Z" fill="#FFFBE6"/>
<path d="M84.4189 19.1543H94.2722V22.2006H88.0233V24.9955H94.0867V28.305H88.0233V31.113H94.2722V34.5383H84.4189V19.1543Z" fill="#FFFBE6"/>
<path d="M97.6584 19.1543H103.973C105.626 19.1543 106.661 19.5625 107.619 20.3728C108.583 21.1873 108.915 22.4761 109.067 23.6652C109.174 24.4979 109.113 25.3006 108.668 26.152C108.231 27.0034 106.915 27.9314 105.692 28.2166L110.511 34.5383H106.143L101.624 28.4157L101.221 28.4157V34.5383H97.6584V19.1543ZM101.246 22.1494V26.1224H102.532C104.386 26.1224 105.314 25.1962 105.314 23.7824C105.314 22.2044 103.622 22.1575 102.582 22.1494H101.246Z" fill="#FFFBE6"/>
<path d="M110.667 19.1543H122.478V22.4856H118.452V34.5383H114.667V22.4856H110.667V19.1543Z" fill="#FFFBE6"/>
<path d="M126.919 19.1543H130.694L135.895 34.5383H132.075L131.082 31.7648H126.415L125.243 34.5383H121.677L126.919 19.1543ZM128.76 24.103L127.064 28.8636H130.208L128.76 24.103Z" fill="#FFFBE6"/>
<path d="M139.624 19.1543H143.153L146.038 27.695L149.177 19.1543H152.68L154.705 34.5383H151.233L150.207 25.8181L146.736 34.538H145.306L142.037 25.6588L140.537 34.538L137.324 34.5383L139.624 19.1543Z" fill="#FFFBE6"/>
<path d="M157.065 19.1543H160.718V34.5383H157.065V19.1543Z" fill="#FFFBE6"/>
<path d="M174.435 19.2388H177.766V34.5385H174.075L167.643 25.4259V34.5385H164.04V19.2388H167.482L174.435 28.7074V19.2388Z" fill="#FFFBE6"/>
<path d="M185.262 19.1543H189.037L194.238 34.5383H190.418L189.426 31.7648H184.758L183.586 34.5383H180.021L185.262 19.1543ZM187.104 24.103L185.407 28.8636H188.552L187.104 24.103Z" fill="#FFFBE6"/>
<path d="M0.238037 45.2704C0.238037 45.2704 12.4164 25.8988 14.4009 22.6874C16.3851 19.4755 18.0945 19.1738 23.5764 19.1738H35.659C34.9467 19.7715 33.7284 21.0194 32.8169 22.486L20.5278 42.2593C19.2991 44.4688 16.7007 45.2704 13.5827 45.2704H0.238037Z" fill="#006CB8"/>
<path d="M48.3462 19.1738C42.8643 19.1738 41.1453 19.4754 39.0569 22.6873C36.9683 25.8987 31.3579 34.5525 31.3579 34.5525H45.4082C47.8613 34.5525 50.2489 33.4753 51.277 31.6947L59.5782 19.1738H48.3462Z" fill="#ACC42A"/>
<path d="M42.5898 0.13916C48.0718 0.13916 49.7908 0.440724 51.8792 3.65265C53.9678 6.86405 59.5782 15.5178 59.5782 15.5178H45.5279C43.0748 15.5178 40.6872 14.4406 39.6591 12.66L31.3579 0.13916H42.5898Z" fill="#ED1B2F"/>
</g>
<defs>
<clipPath id="clip0_14_167">
<rect width="194" height="45.1313" fill="white" transform="translate(0.238037 0.13916)"/>
</clipPath>
</defs>
</svg>
