<svg width="77" height="108" viewBox="0 0 77 108" fill="none" xmlns="http://www.w3.org/2000/svg">
<path d="M51.1207 58.1161C50.6927 61.7978 48.4607 64.7788 45.0039 66.2526C43.0669 67.0691 40.4801 67.5166 38.4052 67.3836C35.2131 67.2505 32.2206 66.4597 29.4276 65.0555C28.4614 64.5236 26.9724 63.5265 25.8365 62.5955C25.5564 62.3294 25.5095 62.1963 25.7127 61.9211C25.8019 61.7597 26.0013 61.4644 26.4102 60.8665C27.0336 59.985 27.1003 59.8685 27.1667 59.7555C27.3661 59.4694 27.67 59.4433 27.9876 59.6694C28.031 59.7137 28.031 59.7137 28.0551 59.7352C28.0974 59.7815 28.0974 59.7815 28.2113 59.8682C28.3289 59.9583 28.4141 60.0013 28.435 60.0522C31.4281 62.3952 34.9121 63.7253 38.4293 63.8584C43.3112 63.7926 46.8196 61.5975 47.4659 58.2053C48.1314 54.5136 45.2219 51.2908 39.5322 49.4937C37.7397 48.9618 33.2289 47.1602 32.396 46.6589C28.4965 44.3749 26.6663 41.377 26.9324 37.6592C27.3315 32.5212 32.1047 28.697 38.1374 28.6635C40.8152 28.6635 43.5144 29.2217 46.0751 30.2989C46.9987 30.6918 48.647 31.5847 49.1952 32.0116C49.5242 32.2554 49.5943 32.5212 49.3914 32.819C49.3239 33.0007 49.1254 33.2714 48.7826 33.8516C48.2827 34.6138 48.2642 34.6456 48.1735 34.8132C47.9955 35.093 47.7411 35.1154 47.4024 34.9151C44.6654 33.0536 41.5782 32.122 38.2052 32.0557C34.0157 32.122 30.8656 34.6192 30.6627 38.0409C30.6209 41.1146 32.9164 43.3537 37.8877 45.0398C47.9986 48.2972 51.8555 52.1028 51.1207 58.1161ZM38.653 5.07484C45.2222 5.07484 50.5888 11.3078 50.8546 19.1216H26.4671C26.7018 11.3078 32.0841 5.07484 38.653 5.07484ZM72.7009 20.602C72.7009 19.7865 72.0697 19.1216 71.2643 19.1216H71.2116H55.4465C55.0476 8.81234 47.6733 0.572266 38.653 0.572266C29.6273 0.572266 22.2721 8.81234 21.8787 19.1216H6.04748C5.25352 19.1396 4.62349 19.79 4.62349 20.602C4.62349 20.6489 4.62349 20.6695 4.62349 20.7164H4.60547L6.85404 70.4424C6.85404 70.5769 6.88036 70.7125 6.88036 70.8742C6.88036 70.9056 6.88465 70.9154 6.88465 70.9746V71.0507L6.90125 71.077C7.23972 74.5439 9.74436 77.3077 13.1674 77.443V77.4694H63.383C63.4093 77.4694 63.4248 77.4694 63.4508 77.4694C63.4897 77.4694 63.4897 77.4694 63.5183 77.4694H63.6225V77.443C67.0942 77.3586 69.9367 74.5439 70.2077 71.039L70.2228 70.9746C70.2228 70.9417 70.2228 70.9059 70.2228 70.8742C70.2228 70.7729 70.2491 70.7085 70.2491 70.6032L72.7009 20.6695C72.7009 20.6512 72.7009 20.6228 72.7009 20.602Z" fill="#EE4D2D"/>
<path d="M67.2755 94.3419C67.7113 92.9631 68.9464 92.0828 70.3999 92.0828C71.8245 92.0828 73.1597 93.0338 73.5958 94.3419L73.6667 94.416H67.2627L67.2755 94.3419ZM75.0504 96.3049C75.0701 96.3049 75.0701 96.3049 75.1016 96.3049C75.1219 96.3049 75.1219 96.3049 75.1219 96.3049C75.4126 96.2989 75.6658 96.0142 75.6658 95.723C75.6658 95.6849 75.6647 95.652 75.6618 95.6492C75.6629 95.6492 75.6629 95.6492 75.6629 95.6157C75.6629 92.598 73.3051 90.2021 70.3993 90.2021C67.501 90.2021 65.1689 92.598 65.1689 95.6157C65.1689 95.8477 65.1689 96.0775 65.2109 96.3041L65.2144 96.3049L65.2344 96.3707C65.3772 97.4334 65.8226 98.4102 66.5491 99.2107C67.3488 100.107 68.438 100.735 69.6729 100.954H69.7456C69.8182 100.954 69.8291 100.954 69.8909 100.969C71.4891 101.171 72.9303 100.954 74.1051 100.344C74.3958 100.19 74.6862 100.008 74.9036 99.8631C74.9769 99.7918 75.049 99.7246 75.1222 99.7063C75.1222 99.6465 75.1594 99.6465 75.1892 99.6465C75.4318 99.3558 75.4735 99.2639 75.2836 98.9913C75.1222 98.7006 74.9763 98.4843 74.8315 98.2648C74.7583 98.1936 74.7468 98.1195 74.6862 98.0897C74.6862 98.0482 74.6862 98.0482 74.685 98.0482C74.6781 98.0482 74.6781 98.0482 74.6696 98.0482H74.6661C74.5145 97.8288 74.3955 97.8288 74.2501 97.9741C74.2427 97.9741 74.1769 98.0482 74.1757 98.0482C73.0144 99.0654 71.4162 99.4093 69.848 99.0654C69.5513 98.9913 69.3018 98.902 69.0191 98.7747C68.0578 98.2648 67.3488 97.393 67.1302 96.3759V96.3047L75.0504 96.3049ZM54.7815 94.3419C55.2173 92.9631 56.4501 92.0828 57.913 92.0828C59.3453 92.0828 60.664 93.0338 61.1101 94.3419L61.1739 94.416H54.7815V94.3419ZM62.5692 96.3049C62.591 96.3049 62.591 96.3049 62.6225 96.3049C62.627 96.3049 62.627 96.3049 62.627 96.3049C62.9177 96.2989 63.187 96.0142 63.187 95.723C63.187 95.6849 63.1858 95.652 63.183 95.6492C63.1835 95.6492 63.1835 95.6492 63.1835 95.6157C63.1835 92.598 60.8096 90.2021 57.9093 90.2021C55.0224 90.2021 52.6726 92.598 52.6726 95.6157C52.6726 95.8477 52.6726 96.0775 52.7318 96.3041L52.7358 96.3049L52.7475 96.3707C52.8929 97.4334 53.3286 98.4102 54.0551 99.2107C54.8519 100.107 55.944 100.735 57.1766 100.954H57.2524C57.3219 100.954 57.35 100.954 57.3963 100.969C58.9945 101.171 60.4474 100.954 61.6099 100.344C61.9023 100.19 62.191 100.008 62.4084 99.8631C62.4817 99.7918 62.5538 99.7246 62.627 99.7063C62.627 99.6465 62.6803 99.6465 62.6991 99.6465C62.9526 99.3558 62.9893 99.2639 62.8039 98.9913C62.627 98.7006 62.4817 98.4843 62.3363 98.2648C62.2637 98.1936 62.2625 98.1195 62.191 98.0897C62.191 98.0482 62.191 98.0482 62.191 98.0482C62.191 98.0482 62.191 98.0482 62.1899 98.0482H62.187C62.0351 97.8288 61.9003 97.8288 61.755 97.9741L61.6811 98.0482C60.5187 99.0654 58.9207 99.4093 57.3688 99.0654C57.0718 98.9913 56.8149 98.902 56.5251 98.7747C55.5772 98.2648 54.8519 97.393 54.6376 96.3759L54.6362 96.3047L62.5692 96.3049ZM45.2625 99.282C43.3026 99.282 41.7044 97.7573 41.6475 95.7945V95.6134C41.7044 93.6896 43.3026 92.1331 45.2625 92.1331C47.2261 92.1331 48.8449 93.7391 48.8449 95.7238C48.8452 97.6837 47.2264 99.282 45.2625 99.282ZM45.2625 90.2225C43.961 90.2225 42.7461 90.6588 41.7728 91.4596L41.6475 91.5775V90.5638C41.6475 90.2731 41.6085 90.2225 41.3247 90.2225H40.0801C39.7989 90.2225 39.7488 90.2734 39.7488 90.5638V106.518C39.7488 106.766 39.7989 106.838 40.0801 106.838H41.3247C41.6025 106.838 41.6475 106.766 41.6475 106.518V99.8631L41.7728 99.9372C42.7467 100.735 43.961 101.171 45.2625 101.171C48.313 101.171 50.7831 98.7286 50.7831 95.7238C50.7831 92.6724 48.313 90.2225 45.2625 90.2225ZM32.315 99.1423C30.3156 99.1423 28.7177 97.571 28.7177 95.6163C28.7177 93.6621 30.3159 92.0902 32.315 92.0902C34.3112 92.0902 35.9114 93.6621 35.9114 95.6163C35.9117 97.5707 34.3112 99.1423 32.315 99.1423ZM32.315 90.2021C29.2636 90.2021 26.7933 92.598 26.7933 95.6231C26.7933 98.6296 29.2636 101.026 32.315 101.026C35.3661 101.026 37.8378 98.6296 37.8378 95.6231C37.8378 92.598 35.3661 90.2021 32.315 90.2021ZM20.0009 90.3046C18.9051 90.3046 17.821 90.6545 16.9209 91.3271L16.8131 91.419V84.0083C16.8131 83.7357 16.7318 83.6636 16.488 83.6636H15.1702C14.9153 83.6636 14.8429 83.7357 14.8429 84.0083V100.881C14.8429 101.171 14.9155 101.245 15.1702 101.245H16.488C16.7318 101.245 16.8131 101.158 16.8131 100.881V95.359C16.8408 93.6281 18.2571 92.2367 20.0012 92.2367C21.7774 92.2367 23.1968 93.6452 23.1968 95.3897V100.881C23.1968 101.171 23.2472 101.245 23.5244 101.245H24.8323C25.1227 101.245 25.1584 101.171 25.1584 100.881V95.3585C25.1581 92.5981 22.8335 90.3046 20.0009 90.3046ZM1.69222 98.1704L1.68907 98.1821C1.49366 98.4565 1.40668 98.5555 1.36777 98.6293C1.22185 98.8459 1.24503 98.9589 1.47449 99.1363C1.98606 99.5721 2.67445 100.008 3.12909 100.227C4.40029 100.88 5.76391 101.171 7.22166 101.243C8.15983 101.254 9.35721 101.026 10.2296 100.663C11.8275 99.9369 12.8427 98.5552 13.0155 96.8657C13.299 94.1024 11.5008 92.3818 6.87889 90.9932L6.87575 90.9924C4.70901 90.2731 3.69388 89.3401 3.69359 88.0737C3.76397 86.6414 5.08668 85.5522 6.87861 85.4901C8.3046 85.499 9.5758 85.9084 10.8341 86.715C11.1008 86.8606 11.2101 86.8271 11.3921 86.5796C11.4181 86.5699 11.4647 86.4961 11.7145 86.1336H11.7159C11.936 85.8406 12.0086 85.6976 12.0095 85.6976C12.162 85.4069 12.154 85.2881 11.8713 85.1165C11.6098 84.8979 10.8659 84.5354 10.4467 84.3543C9.24849 83.881 8.01391 83.6636 6.80164 83.6636C4.01776 83.7357 1.83986 85.5525 1.6948 87.9232C1.61926 89.6213 2.49048 90.9998 4.30759 92.0169C4.81659 92.3076 6.67003 93.0123 7.54153 93.2538C10.0116 93.9803 11.3162 95.3044 11.0333 96.886C10.8078 98.3369 9.30171 99.282 7.2105 99.3492C5.68723 99.282 4.14422 98.7466 2.81865 97.7575C2.81264 97.7567 2.77974 97.6943 2.70993 97.6834C2.6261 97.6122 2.6261 97.6122 2.60206 97.6076C2.34513 97.3927 2.16946 97.3968 2.01925 97.6834C1.98549 97.6837 1.78864 98.003 1.69222 98.1704Z" fill="#EE4D2D"/>
</svg>
