<svg width="146" height="104" viewBox="0 0 146 104" fill="none" xmlns="http://www.w3.org/2000/svg">
<g clip-path="url(#clip0_14_188)">
<path fill-rule="evenodd" clip-rule="evenodd" d="M72.7798 14.8898C75.7675 13.3974 79.3913 12.583 82.7071 12.2959L86.4338 11.9707C90.5163 11.6198 94.6007 11.8353 98.6879 11.8353H100.929V14.0763C100.929 24.0265 100.929 33.9794 100.929 43.9314V45.0758C100.929 55.3492 92.5284 63.7497 82.2522 63.7497H44.606V11.8353H46.846C50.9371 11.8353 55.0071 11.5664 59.0972 11.884L62.823 12.1653C66.3629 12.4313 69.6033 13.2906 72.7798 14.8898Z" fill="#4D4C4B"/>
<path fill-rule="evenodd" clip-rule="evenodd" d="M46.8457 14.0765V39.6517V43.9316V45.0759V61.5097H63.2766H65.86H82.2519C91.2922 61.5097 98.6876 54.1125 98.6876 45.0759V43.9316C98.6876 34.0377 98.6876 24.3861 98.6876 14.0765C94.7596 14.0765 90.6113 13.9802 86.628 14.2052L82.9003 14.5266C79.2527 14.97 75.5622 15.8216 72.7662 17.4351C69.7479 15.691 66.456 14.8241 62.6539 14.3979L58.9272 14.1146C54.8628 13.9258 50.6964 14.0765 46.8457 14.0765Z" fill="#5FB74E"/>
<path fill-rule="evenodd" clip-rule="evenodd" d="M51.4937 61.5096H63.2766H65.86H82.2519C86.2571 61.5096 89.9362 60.0572 92.7932 57.657C89.4565 49.9002 81.7436 44.4722 72.7652 44.4722C62.3621 44.4722 53.6631 51.7598 51.4937 61.5096Z" fill="#89C45F"/>
<path fill-rule="evenodd" clip-rule="evenodd" d="M72.7661 61.5099L82.4435 61.3669C86.3953 61.3669 89.9924 59.9736 92.7941 57.6582C96.4017 54.6772 98.6875 50.1627 98.6875 45.0761V43.9318C98.6875 34.0379 98.6875 24.3863 98.6875 14.0766C94.7596 14.0766 90.6113 13.9803 86.628 14.2054L82.9003 14.5267C79.2527 14.9702 75.5621 15.8218 72.7661 17.4353V61.5099Z" fill="#4A9E4B"/>
<path fill-rule="evenodd" clip-rule="evenodd" d="M72.7661 61.5097H82.3119C86.3171 61.5097 89.9371 60.0583 92.7941 57.658C89.4936 49.989 81.6167 44.5943 72.7661 44.4761V61.5097Z" fill="#5FB74E"/>
<path fill-rule="evenodd" clip-rule="evenodd" d="M86.6281 12.6527C85.9158 5.65599 80.0033 0.205078 72.8254 0.205078C65.6503 0.205078 59.7407 5.60927 58.9272 12.565L62.654 12.8492C63.313 7.82549 67.5947 3.94138 72.8111 3.94138C78.0245 3.94138 82.3444 7.89224 82.9004 12.9732L86.6281 12.6527Z" fill="#4D4C4B"/>
<path fill-rule="evenodd" clip-rule="evenodd" d="M78.8283 46.659C77.2043 48.3765 75.5822 50.095 73.9591 51.8143L72.7651 53.0798L71.5731 51.8143C69.9491 50.0978 68.327 48.3765 66.7039 46.659L65.8638 45.7674L66.4779 44.707C67.7796 42.4621 70.2152 41.2539 72.7651 41.2539C75.318 41.2539 77.7516 42.4621 79.0543 44.707L79.6694 45.7674L78.8283 46.659Z" fill="#4D4C4B"/>
<path fill-rule="evenodd" clip-rule="evenodd" d="M77.6325 45.5328C76.0133 47.2512 74.3873 48.9677 72.7652 50.6881C71.1431 48.9677 69.52 47.2512 67.897 45.5328C68.9221 43.7657 70.8465 42.8922 72.7652 42.896C74.6849 42.8922 76.6093 43.7657 77.6325 45.5328Z" fill="#FDF8B4"/>
<path fill-rule="evenodd" clip-rule="evenodd" d="M77.6324 45.5328C76.0132 47.2512 74.3873 48.9677 72.7651 50.6881V42.896C74.6848 42.8922 76.6092 43.7657 77.6324 45.5328Z" fill="#FCD066"/>
<path fill-rule="evenodd" clip-rule="evenodd" d="M60.6017 20.541C67.8731 20.541 73.7703 26.442 73.7703 33.7106C73.7703 40.982 67.8731 46.8801 60.6017 46.8801C53.3294 46.8801 47.4341 40.982 47.4341 33.7106C47.4341 26.442 53.3294 20.541 60.6017 20.541Z" fill="#4D4C4B"/>
<path fill-rule="evenodd" clip-rule="evenodd" d="M60.6019 22.7822C66.6374 22.7822 71.5314 27.6762 71.5314 33.7108C71.5314 39.7443 66.6374 44.6393 60.6019 44.6393C54.5645 44.6393 49.6733 39.7443 49.6733 33.7108C49.6733 27.6762 54.5645 22.7822 60.6019 22.7822Z" fill="#EEEFEE"/>
<path fill-rule="evenodd" clip-rule="evenodd" d="M60.6019 22.7822C65.5827 22.7822 69.7863 26.1161 71.1032 30.6735C69.7863 35.2289 65.5827 38.5638 60.6019 38.5638C55.6193 38.5638 51.4195 35.2289 50.1025 30.6735C51.4195 26.1161 55.6193 22.7822 60.6019 22.7822Z" fill="#FEFEFE"/>
<path fill-rule="evenodd" clip-rule="evenodd" d="M84.9308 20.541C92.2041 20.541 98.0984 26.442 98.0984 33.7106C98.0984 40.982 92.2041 46.8801 84.9308 46.8801C77.6584 46.8801 71.7612 40.9848 71.7612 33.7106C71.7612 26.442 77.6584 20.541 84.9308 20.541Z" fill="#4D4C4B"/>
<path fill-rule="evenodd" clip-rule="evenodd" d="M84.9305 22.7822C90.965 22.7822 95.86 27.6762 95.86 33.7108C95.86 39.7443 90.965 44.6393 84.9305 44.6393C78.895 44.6393 74.002 39.7443 74.002 33.7108C74.002 27.6762 78.895 22.7822 84.9305 22.7822Z" fill="#EEEFEE"/>
<path fill-rule="evenodd" clip-rule="evenodd" d="M84.9305 22.7822C89.9103 22.7822 94.1139 26.1161 95.429 30.6735C94.1149 35.2289 89.9103 38.5638 84.9305 38.5638C79.9478 38.5638 75.7462 35.2289 74.4292 30.6735C75.7462 26.1161 79.9478 22.7822 84.9305 22.7822Z" fill="#FEFEFE"/>
<path fill-rule="evenodd" clip-rule="evenodd" d="M61.9752 26.9141C65.8727 26.9141 69.0349 30.0744 69.0349 33.968C69.0349 37.8683 65.8727 41.0277 61.9752 41.0277C58.0749 41.0277 54.9155 37.8683 54.9155 33.968C54.9155 32.6692 55.2693 31.4524 55.8835 30.4053C56.387 31.6517 57.6057 32.5261 59.0352 32.5261C60.9119 32.5261 62.4358 31.008 62.4358 29.1303C62.4358 28.2844 62.1268 27.5139 61.6195 26.9217C61.7368 26.9141 61.857 26.9141 61.9752 26.9141Z" fill="#4D4C4B"/>
<path fill-rule="evenodd" clip-rule="evenodd" d="M83.5544 26.9141C87.4557 26.9141 90.616 30.0744 90.616 33.968C90.616 37.8683 87.4557 41.0277 83.5544 41.0277C79.6579 41.0277 76.4976 37.8683 76.4976 33.968C76.4976 32.6692 76.8494 31.4524 77.4617 30.4053C77.968 31.6517 79.1896 32.5261 80.6172 32.5261C82.4939 32.5261 84.015 31.008 84.015 29.1303C84.015 28.2844 83.7098 27.5139 83.2006 26.9217C83.3198 26.9141 83.4361 26.9141 83.5544 26.9141Z" fill="#4D4C4B"/>
<path fill-rule="evenodd" clip-rule="evenodd" d="M77.7881 93.9396C76.2127 95.5388 74.3264 96.3437 72.1417 96.3437C70.3746 96.3437 68.8727 95.9822 67.3392 95.0925V91.4258C68.5732 92.2612 70.121 93.0575 71.6506 93.0575C74.8376 93.0575 76.7353 90.8641 76.7353 87.7553C76.7353 84.6427 74.7718 82.3835 71.5838 82.3835C70.1581 82.3835 69.0052 82.8956 68.1031 83.9217C67.1361 85.0346 66.6364 86.6234 66.6364 88.7242V103.205H66.3961C64.6395 103.205 63.2148 101.78 63.2148 100.025V88.1816C63.2148 83.156 66.2883 79.0993 71.5686 79.0993C74.1748 79.0993 76.2928 79.99 77.8978 81.7809C79.4073 83.4535 80.1569 85.5753 80.1569 88.1263C80.1569 90.3978 79.3673 92.3384 77.7881 93.9396ZM5.24971 96.0051C1.90535 96.0051 0.244141 93.7298 0.244141 90.5513V78.4937C0.244141 76.7371 1.6679 75.3134 3.42543 75.3134H3.66479V79.4368H9.44471V82.7221H3.66479V90.9318C3.66479 92.3279 4.28846 92.7208 5.62163 92.7208H9.44471V96.0051H5.24971ZM25.1175 93.911C23.4258 95.5321 21.3955 96.3437 19.0353 96.3437C16.698 96.3437 14.6772 95.5312 12.9884 93.911C11.2928 92.285 10.447 90.2157 10.447 87.721C10.447 82.8556 14.1632 79.0993 19.0353 79.0993C21.3745 79.0993 23.3991 79.9175 25.1004 81.5482C26.8064 83.1846 27.6589 85.2482 27.6589 87.721C27.6589 90.2157 26.8121 92.285 25.1175 93.911ZM41.1098 83.423C40.6082 84.2651 40.2191 84.8687 39.9454 85.233C39.6431 85.6287 39.3456 85.9463 39.0509 86.1647C41.4283 86.9333 42.3133 88.5802 42.3133 91.0339L42.3142 96.0051H42.073C40.3164 96.0051 38.8917 94.5814 38.8917 92.8248V91.3705C38.8917 89.7827 38.1803 88.7042 36.4962 88.7042H33.3893V96.0051H33.1499C31.3933 96.0051 29.9686 94.5814 29.9686 92.8248V75.1818C29.9686 73.4252 31.3933 72.0005 33.1499 72.0005H33.3893V85.3846H34.4011C35.5111 85.3846 36.2425 85.006 36.6611 84.287L39.5344 79.4368L43.4328 79.434L41.1098 83.423ZM58.769 93.911C57.0792 95.5321 55.047 96.3437 52.6868 96.3437C50.3504 96.3437 48.3306 95.5312 46.6399 93.911C44.9443 92.285 44.0994 90.2157 44.0994 87.721C44.0994 82.8556 47.8147 79.0993 52.6868 79.0993C55.027 79.0993 57.0515 79.9175 58.7519 81.5482C60.4579 83.1846 61.3104 85.2482 61.3104 87.721C61.3104 90.2157 60.4646 92.285 58.769 93.911ZM56.3001 83.8655C55.3569 82.8785 54.1582 82.3835 52.6868 82.3835C49.5389 82.3835 47.6555 84.6789 47.6555 87.721C47.6555 90.7211 49.5847 93.0575 52.6868 93.0575C55.7928 93.0575 57.7191 90.7211 57.7191 87.721C57.7191 86.1284 57.2423 84.8506 56.3001 83.8655ZM22.6476 83.8655C21.7045 82.8785 20.5067 82.3835 19.0353 82.3835C15.8874 82.3835 14.004 84.6789 14.004 87.721C14.004 90.7211 15.9332 93.0575 19.0353 93.0575C22.1394 93.0575 24.0685 90.7211 24.0685 87.721C24.0685 86.1284 23.5908 84.8506 22.6476 83.8655ZM114.828 93.8175C113.257 95.5026 111.237 96.3437 108.786 96.3437C106.201 96.3437 104.094 95.4511 102.49 93.6611C100.982 91.9675 100.232 89.8447 100.232 87.3157C100.232 82.8384 103.689 79.0993 108.233 79.0993C109.987 79.0993 111.51 79.4674 113.049 80.3123V84.0162C111.814 83.1808 110.266 82.3835 108.739 82.3835C105.552 82.3835 103.653 84.5769 103.653 87.6867C103.653 90.7564 105.662 93.0575 108.804 93.0575C110.227 93.0575 111.399 92.5234 112.336 91.4506C113.268 90.3826 113.752 88.8138 113.752 86.7073V75.1818C113.752 73.4252 115.176 72.0005 116.933 72.0005H117.173V87.247C117.173 89.9334 116.397 92.1305 114.828 93.8175ZM124.488 77.4705C124.129 77.8729 123.614 78.0579 122.985 78.0579C121.811 78.0579 120.972 77.1911 120.972 76.0267C120.972 74.8337 121.797 74.0288 122.985 74.0288C124.13 74.0288 125 74.8776 125 76.0267C125 76.5951 124.834 77.0824 124.488 77.4705ZM141.869 86.7073C141.869 85.3589 141.359 84.2918 140.333 83.4821C139.409 82.7545 138.255 82.3835 136.853 82.3835C133.757 82.3835 131.77 84.8038 131.77 87.7877C131.77 90.661 133.876 93.0575 136.822 93.0575C138.869 93.0575 139.964 91.8607 141.133 90.3711V94.6691C140.537 95.1144 139.853 95.5998 139.153 95.885C138.416 96.1939 137.537 96.3437 136.52 96.3437C131.596 96.3437 128.349 92.265 128.349 87.5522C128.349 85.1319 129.101 83.1321 130.613 81.5711C132.22 79.9184 134.325 79.0993 136.903 79.0993C141.792 79.0993 145.29 81.9058 145.29 86.9772V96.0051H145.05C143.294 96.0051 141.869 94.5814 141.869 92.8248V86.7073ZM95.0401 85.7384C94.6072 84.4014 94.0655 83.7434 92.8182 83.0482C89.8553 81.3908 86.9372 82.8003 85.5802 85.725L95.0401 85.7384ZM92.43 96.2931C90.2443 96.7566 88.1006 96.399 86.0093 95.2317C83.9695 94.0912 82.601 92.3957 81.9173 90.1575C80.5326 85.6287 83.3697 80.5812 87.9308 79.3587C90.1928 78.7531 92.3614 79.0277 94.4212 80.1797C97.8438 82.0917 99.0902 85.0499 98.8727 88.8625L85.091 88.8339C85.2931 90.3892 86.2582 91.6061 87.6123 92.3632C88.9855 93.1309 90.2491 93.314 91.4221 92.9507C92.7219 92.5416 93.7775 91.4802 94.6358 90.4913L97.4452 92.5377C96.2989 94.588 94.7388 95.801 92.43 96.2931ZM121.275 79.4368H124.696V96.0051H124.456C122.7 96.0051 121.275 94.5814 121.275 92.8248V79.4368Z" fill="#3CAF41"/>
</g>
<defs>
<clipPath id="clip0_14_188">
<rect width="145.058" height="103" fill="white" transform="translate(0.238281 0.205078)"/>
</clipPath>
</defs>
</svg>
